<?xml version="1.0" encoding="UTF-8"?>
<svg xmlns="http://www.w3.org/2000/svg" xmlns:xlink="http://www.w3.org/1999/xlink" viewBox="0 0 750 500">
  <defs>
    <style>
      .cls-1 {
        fill: none;
      }

      .cls-2 {
        fill: #fff;
      }

      .cls-2, .cls-3, .cls-4, .cls-5, .cls-6, .cls-7, .cls-8, .cls-9, .cls-10, .cls-11, .cls-12, .cls-13, .cls-14, .cls-15, .cls-16, .cls-17, .cls-18, .cls-19, .cls-20, .cls-21, .cls-22, .cls-23, .cls-24, .cls-25, .cls-26, .cls-27, .cls-28, .cls-29, .cls-30 {
        mix-blend-mode: overlay;
      }

      .cls-31 {
        isolation: isolate;
      }

      .cls-3 {
        fill: url(#linear-gradient);
      }

      .cls-4 {
        fill: url(#linear-gradient-8);
      }

      .cls-5 {
        fill: url(#linear-gradient-2);
      }

      .cls-6 {
        fill: url(#linear-gradient-3);
      }

      .cls-7 {
        fill: url(#linear-gradient-4);
      }

      .cls-8 {
        fill: url(#linear-gradient-9);
      }

      .cls-9 {
        fill: url(#linear-gradient-6);
      }

      .cls-10 {
        fill: url(#linear-gradient-5);
      }

      .cls-11 {
        fill: url(#linear-gradient-7);
      }

      .cls-12 {
        fill: url(#linear-gradient-10);
      }

      .cls-13 {
        fill: url(#linear-gradient-12);
      }

      .cls-14 {
        fill: url(#linear-gradient-11);
      }

      .cls-15 {
        fill: url(#linear-gradient-13);
      }

      .cls-16 {
        fill: url(#linear-gradient-22);
      }

      .cls-17 {
        fill: url(#linear-gradient-20);
      }

      .cls-18 {
        fill: url(#linear-gradient-23);
      }

      .cls-19 {
        fill: url(#linear-gradient-19);
      }

      .cls-20 {
        fill: url(#linear-gradient-21);
      }

      .cls-21 {
        fill: url(#linear-gradient-14);
      }

      .cls-22 {
        fill: url(#linear-gradient-15);
      }

      .cls-23 {
        fill: url(#linear-gradient-17);
      }

      .cls-24 {
        fill: url(#linear-gradient-16);
      }

      .cls-25 {
        fill: url(#linear-gradient-28);
      }

      .cls-26 {
        fill: url(#linear-gradient-25);
      }

      .cls-27 {
        fill: url(#linear-gradient-26);
      }

      .cls-28 {
        fill: url(#linear-gradient-24);
      }

      .cls-29 {
        fill: url(#linear-gradient-27);
      }

      .cls-30 {
        fill: url(#linear-gradient-18);
      }

      .cls-32 {
        clip-path: url(#clippath);
      }
    </style>
    <clipPath id="clippath">
      <rect class="cls-1" x="-40.05" y="-1.33" width="750" height="500"/>
    </clipPath>
    <linearGradient id="linear-gradient" x1="144.57" y1="237.53" x2="338.73" y2="237.53" gradientUnits="userSpaceOnUse">
      <stop offset="0" stop-color="#fff" stop-opacity="0"/>
      <stop offset="1" stop-color="#fff"/>
    </linearGradient>
    <linearGradient id="linear-gradient-2" x1="303.78" y1="195.54" x2="564.47" y2="195.54" xlink:href="#linear-gradient"/>
    <linearGradient id="linear-gradient-3" x1="367.11" y1="245.41" x2="688.79" y2="245.41" xlink:href="#linear-gradient"/>
    <linearGradient id="linear-gradient-4" x1="247.87" y1="282.54" x2="1051.76" y2="282.54" xlink:href="#linear-gradient"/>
    <linearGradient id="linear-gradient-5" x1="463.14" y1="401.33" x2="851.57" y2="401.33" xlink:href="#linear-gradient"/>
    <linearGradient id="linear-gradient-6" x1="26.82" y1="131.58" x2="415.26" y2="131.58" xlink:href="#linear-gradient"/>
    <linearGradient id="linear-gradient-7" x1="210.31" y1="329.66" x2="598.74" y2="329.66" xlink:href="#linear-gradient"/>
    <linearGradient id="linear-gradient-8" x1="166.7" y1="371.23" x2="539.95" y2="371.23" xlink:href="#linear-gradient"/>
    <linearGradient id="linear-gradient-9" x1="151.43" y1="257.99" x2="573.37" y2="257.99" xlink:href="#linear-gradient"/>
    <linearGradient id="linear-gradient-10" x1="49.94" y1="247.04" x2="184.68" y2="247.04" xlink:href="#linear-gradient"/>
    <linearGradient id="linear-gradient-11" x1="90.69" y1="203.46" x2="427.9" y2="203.46" xlink:href="#linear-gradient"/>
    <linearGradient id="linear-gradient-12" x1="680.99" y1="289.05" x2="802.27" y2="289.05" xlink:href="#linear-gradient"/>
    <linearGradient id="linear-gradient-13" x1="-151.82" y1="319.73" x2="185.62" y2="319.73" xlink:href="#linear-gradient"/>
    <linearGradient id="linear-gradient-14" x1="-43.83" y1="380.27" x2="353.78" y2="380.27" xlink:href="#linear-gradient"/>
    <linearGradient id="linear-gradient-15" x1="97.91" y1="169.91" x2="341.95" y2="169.91" xlink:href="#linear-gradient"/>
    <linearGradient id="linear-gradient-16" x1="143.87" y1="347.11" x2="406.91" y2="347.11" xlink:href="#linear-gradient"/>
    <linearGradient id="linear-gradient-17" x1="134.93" y1="118.57" x2="397.98" y2="118.57" xlink:href="#linear-gradient"/>
    <linearGradient id="linear-gradient-18" x1="93.26" y1="188.3" x2="384.55" y2="188.3" xlink:href="#linear-gradient"/>
    <linearGradient id="linear-gradient-19" x1="16.24" y1="304.02" x2="148.05" y2="304.02" xlink:href="#linear-gradient"/>
    <linearGradient id="linear-gradient-20" x1="218.09" y1="308.83" x2="492.42" y2="308.83" xlink:href="#linear-gradient"/>
    <linearGradient id="linear-gradient-21" x1="283.81" y1="145.67" x2="514.59" y2="145.67" xlink:href="#linear-gradient"/>
    <linearGradient id="linear-gradient-22" x1="341.61" y1="279.86" x2="665.82" y2="279.86" xlink:href="#linear-gradient"/>
    <linearGradient id="linear-gradient-23" x1="511.83" y1="337.26" x2="771.47" y2="337.26" xlink:href="#linear-gradient"/>
    <linearGradient id="linear-gradient-24" x1="610.64" y1="201.89" x2="800.07" y2="201.89" xlink:href="#linear-gradient"/>
    <linearGradient id="linear-gradient-25" x1="409.38" y1="163.44" x2="650.1" y2="163.44" xlink:href="#linear-gradient"/>
    <linearGradient id="linear-gradient-26" x1="61.66" y1="370.48" x2="450.1" y2="370.48" xlink:href="#linear-gradient"/>
    <linearGradient id="linear-gradient-27" x1="-74.37" y1="414.27" x2="314.06" y2="414.27" xlink:href="#linear-gradient"/>
    <linearGradient id="linear-gradient-28" x1="14.78" y1="191.31" x2="297.76" y2="191.31" xlink:href="#linear-gradient"/>
  </defs>
  <g class="cls-31">
    <g id="BACKGROUND2">
      <g class="cls-32">
        <g>
          <rect class="cls-3" x="144.57" y="220.91" width="194.16" height="33.24"/>
          <rect class="cls-5" x="303.78" y="185.04" width="260.7" height="21"/>
          <rect class="cls-6" x="367.11" y="231.41" width="321.69" height="27.99"/>
          <rect class="cls-7" x="-150.93" y="243.3" width="803.89" height="78.48"/>
          <rect class="cls-10" x="318.66" y="399.26" width="388.43" height="4.14"/>
          <rect class="cls-9" x="-117.65" y="129.51" width="388.43" height="4.14"/>
          <rect class="cls-11" x="65.84" y="327.59" width="388.43" height="4.14"/>
          <rect class="cls-4" x="166.7" y="354.99" width="373.25" height="32.48"/>
          <rect class="cls-8" x="-7.16" y="247.95" width="421.95" height="20.08"/>
          <rect class="cls-12" x="-20.4" y="235.82" width="134.74" height="22.43"/>
          <rect class="cls-14" x="-87.04" y="198.7" width="337.21" height="9.52"/>
          <rect class="cls-13" x="680.99" y="279.64" width="121.28" height="18.82"/>
          <rect class="cls-15" x="-151.82" y="305.73" width="337.44" height="27.99"/>
          <rect class="cls-21" x="-164.6" y="362.97" width="397.61" height="34.6"/>
          <rect class="cls-22" x="-69.24" y="159.29" width="244.04" height="21.24"/>
          <rect class="cls-24" x="143.87" y="344.01" width="263.04" height="6.2"/>
          <rect class="cls-23" x="103.25" y="115.47" width="263.04" height="6.2"/>
          <rect class="cls-30" x="-6.06" y="173.23" width="291.29" height="30.14"/>
          <rect class="cls-19" x="16.24" y="287.4" width="131.82" height="33.24"/>
          <rect class="cls-17" x="218.09" y="302.27" width="274.33" height="13.12"/>
          <rect class="cls-20" x="283.81" y="142.18" width="230.79" height="7"/>
          <rect class="cls-16" x="341.61" y="274.94" width="324.21" height="9.83"/>
          <rect class="cls-18" x="511.83" y="333.76" width="259.63" height="7"/>
          <rect class="cls-28" x="610.64" y="199.34" width="189.43" height="5.11"/>
          <rect class="cls-26" x="409.38" y="160.86" width="240.73" height="5.16"/>
          <path class="cls-2" d="M473.92,193.42H203.49v-47.13h270.43v47.13ZM204.49,192.42h268.43v-45.13H204.49v45.13Z"/>
          <path class="cls-2" d="M239.56,140.05H-30.87v-33.81H239.56v33.81ZM-29.87,139.05H238.56v-31.81H-29.87v31.81Z"/>
          <path class="cls-2" d="M452.15,363.57h-136.23v-33.57h136.23v33.57ZM316.92,362.57h134.23v-31.57h-134.23v31.57Z"/>
          <path class="cls-2" d="M515.49,228.41H225.66v-50.45h289.83v50.45ZM226.66,227.41h287.83v-48.45H226.66v48.45Z"/>
          <path class="cls-2" d="M225.92,279.13H7.9v-38.16h218.02v38.16ZM8.9,278.13h216.02v-36.16H8.9v36.16Z"/>
          <path class="cls-2" d="M399.12,307.82h-155.67v-27.48h155.67v27.48ZM244.45,306.82h153.67v-25.48h-153.67v25.48Z"/>
          <path class="cls-2" d="M578.06,245.7h-155.67v-27.48h155.67v27.48ZM423.39,244.7h153.67v-25.48h-153.67v25.48Z"/>
          <path class="cls-2" d="M361.03,431.84H91.92v-47.51h269.11v47.51ZM93.65,430.11h265.65v-44.05H93.65v44.05Z"/>
          <rect class="cls-27" x="-82.81" y="368.41" width="388.43" height="4.14"/>
          <rect class="cls-29" x="-218.85" y="412.2" width="388.43" height="4.14"/>
          <rect class="cls-25" x="-90.47" y="189.8" width="282.98" height="3.02"/>
        </g>
      </g>
    </g>
  </g>
</svg>