<svg width="132" height="154" viewBox="0 0 132 154" fill="none" xmlns="http://www.w3.org/2000/svg">
<g filter="url(#filter0_d_42_13699)">
<path d="M1 19.7745C1 14.3928 5.25916 9.97629 10.6373 9.78112L114.637 6.00692C120.299 5.80147 125 10.3353 125 16.0003V141.886C125 147.504 120.374 152.019 114.758 151.883L10.7581 149.367C5.3311 149.236 1 144.798 1 139.37V19.7745Z" fill="white"/>
</g>
<circle cx="10.5" cy="10.5" r="10.5" transform="matrix(0.999848 -0.0174524 -0.0348995 0.999391 86.6152 102.763)" fill="#DDDFE3"/>
<line y1="-0.5" x2="9" y2="-0.5" transform="matrix(0.999848 -0.0174524 -0.0348995 0.999391 92.2651 112.652)" stroke="#6B7280"/>
<line y1="-0.5" x2="8" y2="-0.5" transform="matrix(0.0348995 -0.999391 0.999848 -0.0174524 97.125 116.562)" stroke="#6B7280"/>
<path d="M14.8401 83.2488C15.0753 83.3832 15.3388 83.5437 15.6307 83.7304C15.9226 83.9171 16.2169 84.1117 16.5136 84.3143C16.8157 84.5167 17.0966 84.7116 17.3566 84.8988C17.6218 85.086 17.8399 85.2499 18.0109 85.3908L17.0445 86.5103C16.8794 86.3534 16.6673 86.1707 16.4081 85.9621C16.1545 85.7481 15.877 85.5292 15.5757 85.3054C15.2798 85.0816 14.9888 84.8682 14.7027 84.6655C14.4167 84.4627 14.1642 84.2914 13.9453 84.1514L14.8401 83.2488ZM18.7091 81.8789C18.6528 81.9651 18.5932 82.0673 18.5305 82.1856C18.4733 82.2985 18.4212 82.4166 18.3742 82.5399C18.2862 82.7705 18.1678 83.0336 18.0189 83.3292C17.8756 83.6193 17.7052 83.9206 17.5077 84.233C17.3103 84.5454 17.0863 84.8556 16.8357 85.1636C16.435 85.65 15.9605 86.1137 15.4122 86.5548C14.8692 86.9957 14.2085 87.3722 13.4302 87.684L12.3365 86.7283C12.9349 86.5314 13.4435 86.3122 13.8623 86.0705C14.2813 85.8234 14.6393 85.5668 14.9364 85.3006C15.2388 85.0343 15.5038 84.7714 15.7313 84.5117C15.9033 84.3169 16.0709 84.0983 16.2339 83.8557C16.3969 83.6132 16.5385 83.3736 16.6587 83.1372C16.7844 82.8953 16.8717 82.6833 16.9207 82.5014L14.3611 82.546L14.8313 81.4432L16.9589 81.406C17.0922 81.4037 17.2312 81.3933 17.3757 81.3748C17.5258 81.3509 17.652 81.322 17.7544 81.2883L18.7091 81.8789ZM16.1379 80.6533C16.0203 80.8152 15.905 80.9876 15.792 81.1707C15.6791 81.3538 15.5943 81.4911 15.5378 81.5827C15.3341 81.9218 15.0792 82.2778 14.7731 82.6507C14.467 83.0236 14.1347 83.381 13.7764 83.7228C13.4181 84.0647 13.0559 84.364 12.6898 84.6207L11.6702 83.8315C12.155 83.5301 12.5628 83.222 12.8936 82.9072C13.2298 82.5871 13.5096 82.2812 13.733 81.9897C13.9619 81.6927 14.1495 81.4311 14.296 81.2048C14.3746 81.0916 14.457 80.9437 14.5433 80.761C14.6352 80.573 14.7051 80.4013 14.7532 80.246L16.1379 80.6533ZM26.2328 81.38C26.1936 81.4339 26.1373 81.5202 26.0639 81.6386C25.9904 81.7571 25.9306 81.8673 25.8844 81.9694C25.7639 82.2165 25.6156 82.4961 25.4395 82.8081C25.2689 83.1147 25.0741 83.4271 24.8552 83.7452C24.6415 84.0632 24.4126 84.3628 24.1683 84.6441C23.8576 84.9958 23.5124 85.3427 23.1327 85.6849C22.7585 86.0217 22.3639 86.3349 21.9488 86.6245C21.5391 86.9086 21.1256 87.1529 20.7081 87.3573L19.7368 86.3275C20.1743 86.16 20.6028 85.9475 21.0221 85.6898C21.4415 85.4321 21.8295 85.1563 22.1862 84.8625C22.5428 84.5686 22.843 84.289 23.0868 84.0237C23.2696 83.8235 23.4368 83.6155 23.5882 83.3997C23.745 83.1839 23.8829 82.9738 24.0019 82.7693C24.1212 82.5595 24.2104 82.3688 24.2697 82.1973C24.211 82.1983 24.1177 82.2 23.9898 82.2022C23.8618 82.2044 23.7151 82.207 23.5498 82.2099C23.3845 82.2128 23.2112 82.2158 23.0299 82.2189C22.8539 82.222 22.6833 82.225 22.518 82.2279C22.3527 82.2308 22.2034 82.2334 22.07 82.2357C21.9421 82.2379 21.8461 82.2396 21.7821 82.2407C21.6648 82.2428 21.5393 82.2503 21.4056 82.2633C21.2774 82.2708 21.1545 82.281 21.0368 82.2937C20.9244 82.3063 20.8309 82.3159 20.756 82.3226L20.804 80.9474C20.8996 80.9564 21.0113 80.9651 21.1389 80.9735C21.2718 80.9818 21.3995 80.9876 21.522 80.9908C21.6498 80.9939 21.751 80.9948 21.8256 80.9935C21.9056 80.9921 22.0176 80.9901 22.1616 80.9876C22.3056 80.9851 22.4655 80.9823 22.6415 80.9792C22.8228 80.9761 23.0068 80.9729 23.1934 80.9696C23.3854 80.9663 23.5667 80.9631 23.7373 80.9601C23.9133 80.957 24.068 80.9543 24.2013 80.952C24.3346 80.9497 24.4332 80.948 24.4972 80.9468C24.6999 80.9433 24.8869 80.9294 25.0583 80.9051C25.2352 80.8754 25.3695 80.8437 25.4613 80.8102L26.2328 81.38ZM24.3002 83.8428C24.4972 83.9991 24.7093 84.1845 24.9363 84.399C25.1633 84.6134 25.3872 84.8385 25.6081 85.0744C25.8346 85.3048 26.0426 85.5276 26.2323 85.7427C26.422 85.9578 26.5781 86.1415 26.7007 86.2938L25.5551 87.2806C25.3678 86.9963 25.1539 86.7123 24.9133 86.4289C24.6783 86.14 24.4271 85.8541 24.1599 85.5711C23.898 85.288 23.6276 85.0184 23.3488 84.7623L24.3002 83.8428ZM34.7099 81.7354C34.6536 81.8216 34.5941 81.9239 34.5313 82.0422C34.4741 82.155 34.422 82.2731 34.375 82.3965C34.2981 82.6162 34.1932 82.8737 34.0603 83.169C33.9274 83.4643 33.7647 83.7734 33.5722 84.0964C33.3798 84.4194 33.1556 84.7349 32.8997 85.043C32.4938 85.5242 32.0283 85.9585 31.5032 86.3458C30.9783 86.7279 30.3344 87.08 29.5718 87.4023L28.4557 86.399C29.0377 86.2131 29.5297 86.0127 29.9316 85.798C30.3388 85.5831 30.6877 85.3586 30.9783 85.1245C31.2691 84.885 31.531 84.6354 31.7639 84.3757C31.941 84.1861 32.1059 83.9675 32.2584 83.7198C32.4163 83.472 32.5501 83.2273 32.6598 82.9857C32.775 82.7387 32.8516 82.5296 32.8895 82.3585L30.3459 82.4029L30.8161 81.3C30.8907 81.2987 31.0027 81.2967 31.152 81.2941C31.3013 81.2915 31.4666 81.2886 31.6479 81.2855C31.8346 81.2822 32.0159 81.279 32.1919 81.276C32.3732 81.2728 32.5305 81.2701 32.6638 81.2677C32.8024 81.2653 32.8984 81.2636 32.9517 81.2627C33.0851 81.2604 33.224 81.25 33.3685 81.2315C33.5186 81.2075 33.6448 81.1787 33.7473 81.145L34.7099 81.7354ZM32.1875 80.485C32.0699 80.6469 31.9547 80.8193 31.8417 81.0024C31.7287 81.1855 31.644 81.3228 31.5875 81.4144C31.3838 81.7535 31.1345 82.1014 30.8396 82.4582C30.5502 82.8095 30.2319 83.1479 29.8848 83.4736C29.5379 83.794 29.1814 84.0825 28.8154 84.3392L27.7558 83.5507C28.1153 83.3261 28.4323 83.0995 28.7068 82.8709C28.9812 82.6424 29.2182 82.4172 29.4179 82.1953C29.6175 81.9734 29.79 81.7627 29.9356 81.5631C30.0866 81.358 30.2183 81.1719 30.3308 81.0048C30.4093 80.8916 30.4918 80.7437 30.5781 80.561C30.6699 80.373 30.7399 80.2013 30.7879 80.046L32.1875 80.485ZM39.4499 80.1425C39.4183 80.2869 39.3663 80.4769 39.2941 80.7125C39.2273 80.9481 39.13 81.2161 39.0023 81.5167C38.9217 81.6885 38.8328 81.8685 38.7356 82.0567C38.6384 82.2448 38.5421 82.4089 38.4466 82.5491C38.5005 82.5322 38.5756 82.5176 38.672 82.5052C38.7685 82.4876 38.8675 82.4752 38.969 82.4681C39.0759 82.4609 39.1666 82.4566 39.2413 82.4553C39.5879 82.4493 39.8723 82.5455 40.0945 82.7441C40.3168 82.9426 40.4209 83.2418 40.4069 83.6415C40.403 83.7535 40.3984 83.8867 40.393 84.0413C40.3931 84.1904 40.3929 84.3476 40.3925 84.5127C40.3921 84.6778 40.3917 84.8403 40.3915 85.0001C40.3912 85.1599 40.3889 85.3038 40.3844 85.4317L39.2326 85.4518C39.2462 85.3664 39.2576 85.2676 39.2669 85.1556C39.2761 85.0436 39.283 84.9236 39.2875 84.7957C39.2973 84.6677 39.3043 84.5424 39.3086 84.4198C39.3182 84.2971 39.3249 84.1798 39.3289 84.0678C39.3382 83.8013 39.2777 83.6239 39.1476 83.5357C39.023 83.4419 38.8887 83.3964 38.7447 83.3989C38.542 83.4024 38.3268 83.4621 38.0989 83.5779C37.8766 83.6884 37.6936 83.8141 37.5502 83.9551C37.4286 84.0797 37.3038 84.2177 37.176 84.3691C37.0536 84.5151 36.9199 84.6825 36.7747 84.8715L35.77 84.114C36.1 83.8206 36.3952 83.5304 36.6557 83.2436C36.9215 82.9566 37.153 82.6622 37.35 82.3605C37.5473 82.0534 37.713 81.7336 37.8472 81.401C37.9293 81.1865 37.9983 80.9642 38.0543 80.7342C38.1158 80.4987 38.1557 80.2743 38.1738 80.0609L39.4499 80.1425ZM36.259 80.8694C36.4605 80.8978 36.697 80.9177 36.9684 80.9289C37.2398 80.9402 37.4821 80.9439 37.6954 80.9402C38.042 80.9342 38.4262 80.9195 38.8481 80.8961C39.2752 80.8727 39.7081 80.8385 40.1467 80.7935C40.5906 80.7485 41.011 80.6879 41.4081 80.6117L41.361 81.7312C41.077 81.7734 40.7665 81.8135 40.4295 81.8513C40.0926 81.8838 39.7505 81.9138 39.4031 81.9411C39.0559 81.9632 38.7249 81.9823 38.4099 81.9984C38.1004 82.0092 37.8284 82.0166 37.5937 82.0207C37.4871 82.0225 37.3538 82.0249 37.1938 82.0276C37.034 82.0251 36.869 82.02 36.6987 82.0123C36.5284 82.0046 36.3688 81.9968 36.2199 81.9887L36.259 80.8694ZM42.636 83.2191C42.5444 83.2473 42.4311 83.2866 42.2961 83.3369C42.1613 83.3818 42.0264 83.4295 41.8915 83.4798C41.7565 83.5301 41.6376 83.5774 41.5348 83.6218C41.2861 83.7221 40.9887 83.8444 40.6426 83.989C40.3018 84.1334 39.9442 84.3021 39.5697 84.4951C39.3363 84.6164 39.1457 84.7342 38.9978 84.8487C38.8501 84.9578 38.7397 85.0689 38.6664 85.1821C38.5934 85.2899 38.5546 85.4077 38.5502 85.5357C38.5472 85.6209 38.5607 85.6926 38.5906 85.7507C38.6259 85.8087 38.6802 85.8557 38.7536 85.8917C38.8322 85.9276 38.9352 85.9551 39.0624 85.9742C39.1899 85.9879 39.3469 85.9932 39.5335 85.9899C39.8908 85.9837 40.2808 85.9556 40.7036 85.9056C41.1265 85.8502 41.5153 85.7822 41.8698 85.7014L41.7863 86.9494C41.6256 86.9735 41.4115 86.9985 41.1441 87.0245C40.8819 87.0557 40.604 87.0792 40.3103 87.095C40.0165 87.1161 39.7362 87.129 39.4696 87.1336C39.0323 87.1413 38.6446 87.1028 38.3065 87.0181C37.9736 86.9387 37.712 86.7994 37.5217 86.6003C37.337 86.3958 37.2508 86.1177 37.2631 85.7659C37.2735 85.4674 37.3495 85.1997 37.491 84.9629C37.638 84.7206 37.8241 84.5043 38.0492 84.3139C38.2746 84.1182 38.5178 83.9435 38.779 83.7898C39.0404 83.6307 39.2931 83.4905 39.5371 83.3691C39.7869 83.2368 40.0038 83.1292 40.1879 83.0461C40.3722 82.9576 40.5428 82.8801 40.6996 82.8134C40.8567 82.7414 41.0111 82.6695 41.1628 82.5976C41.3414 82.5199 41.5147 82.4423 41.6826 82.3648C41.856 82.2819 42.0295 82.1963 42.2032 82.108L42.636 83.2191ZM45.4362 79.7184L46.652 79.6972L46.4898 84.3424L45.274 84.3636L45.4362 79.7184ZM48.2438 79.6694L49.4676 79.648L49.3054 84.2932L48.0816 84.3146L48.2438 79.6694ZM43.6536 83.6088L51.0045 83.4805L50.9648 84.6158L43.614 84.7441L43.6536 83.6088ZM43.9873 81.15L50.8662 81.0299L50.8271 82.1492L43.9482 82.2693L43.9873 81.15ZM47.7311 85.4233L48.823 84.829C49.0361 84.9851 49.2724 85.1621 49.5319 85.36C49.7968 85.5577 50.0509 85.7584 50.2943 85.9619C50.5432 86.16 50.7474 86.3402 50.9069 86.5025L49.7159 87.1865C49.5829 87.029 49.4001 86.8458 49.1676 86.6368C48.9402 86.433 48.6997 86.2241 48.446 86.0101C48.1924 85.7962 47.954 85.6006 47.7311 85.4233ZM45.5821 84.9255L46.8052 85.3836C46.5945 85.6163 46.3599 85.8495 46.1013 86.083C45.8428 86.3113 45.5767 86.529 45.303 86.7362C45.0294 86.9434 44.7619 87.1238 44.5007 87.2775C44.4237 87.1937 44.3283 87.1021 44.2146 87.0029C44.1008 86.9037 43.9869 86.8071 43.8729 86.7132C43.759 86.6193 43.6578 86.5412 43.5694 86.4788C43.8191 86.3466 44.0723 86.193 44.3289 86.0181C44.5855 85.8431 44.8237 85.6605 45.0435 85.4703C45.2635 85.2747 45.443 85.0931 45.5821 84.9255ZM51.8205 80.4859L59.0274 80.3601L58.9894 81.4474L51.7825 81.5732L51.8205 80.4859ZM53.9911 83.3405L57.3106 83.2825L57.2771 84.242L53.9576 84.2999L53.9911 83.3405ZM53.1661 82.0125L57.1895 81.9423L57.1543 82.9497L54.2828 82.9998L54.1396 87.1013L52.9877 87.1214L53.1661 82.0125ZM56.9656 81.9462L58.1014 81.9264L57.9646 85.844C57.9553 86.1105 57.9158 86.3243 57.8463 86.4853C57.7818 86.6515 57.6574 86.7815 57.4729 86.8753C57.294 86.9637 57.0841 87.0206 56.8434 87.0461C56.608 87.0715 56.333 87.087 56.0184 87.0925C56.0027 86.9329 55.964 86.7445 55.9023 86.5272C55.8459 86.3098 55.783 86.1271 55.7136 85.9792C55.8307 85.9824 55.9532 85.9856 56.081 85.9887C56.2087 85.9918 56.3233 85.9925 56.4246 85.9907C56.5313 85.9889 56.6059 85.9876 56.6486 85.9868C56.7126 85.9857 56.7583 85.9742 56.7857 85.9525C56.8131 85.9307 56.8277 85.8931 56.8296 85.8398L56.9656 81.9462ZM54.2528 79.5086L55.4511 79.7593C55.2433 80.3702 54.9875 80.9793 54.6839 81.5865C54.3804 82.1884 54.0223 82.7513 53.6097 83.2752C53.1972 83.7938 52.7207 84.2389 52.1801 84.6106C52.1244 84.5263 52.0505 84.4291 51.9585 84.3188C51.8717 84.2085 51.7822 84.1008 51.6899 83.9959C51.5979 83.8856 51.513 83.7966 51.4355 83.7287C51.7954 83.4933 52.1249 83.2159 52.4238 82.8964C52.7229 82.5716 52.9883 82.2207 53.22 81.8438C53.457 81.4668 53.6597 81.0797 53.8281 80.6826C54.0019 80.2854 54.1434 79.894 54.2528 79.5086ZM53.9456 84.6437L57.2651 84.5857L57.2316 85.5452L53.9121 85.6031L53.9456 84.6437ZM63.3576 82.0344C63.5656 82.0308 63.7504 82.0781 63.9122 82.1765C64.0793 82.2748 64.2105 82.4084 64.3059 82.5772C64.4015 82.7406 64.4456 82.9263 64.4383 83.1342C64.4313 83.3367 64.3741 83.5241 64.2668 83.6965C64.1595 83.8688 64.0188 84.0071 63.8446 84.1113C63.6758 84.2155 63.4874 84.2694 63.2794 84.273C63.0768 84.2766 62.8919 84.2292 62.7248 84.1309C62.5577 84.0326 62.4265 83.8991 62.3311 83.7303C62.2358 83.5615 62.1916 83.3758 62.1987 83.1733C62.2059 82.9654 62.2631 82.7779 62.3702 82.6109C62.4775 82.4386 62.6182 82.3003 62.7924 82.1961C62.9666 82.0918 63.155 82.0379 63.3576 82.0344ZM70.8414 79.243L72.0413 79.2221L71.9946 80.5572L70.7948 80.5782L70.8414 79.243ZM67.9715 79.9323L74.8825 79.8117L74.8191 81.6266L73.6113 81.6477L73.6395 80.8402L69.0882 80.9196L69.06 81.7271L67.9082 81.7472L67.9715 79.9323ZM68.6558 81.3986L74.1669 81.3024L74.1346 82.2298L68.6234 82.326L68.6558 81.3986ZM67.7986 83.9704L74.8215 83.8478L74.7866 84.8472L67.7637 84.9698L67.7986 83.9704ZM68.7394 82.6676L73.9306 82.5769L73.8982 83.5044L68.707 83.595L68.7394 82.6676ZM71.7912 84.0925C72.008 84.6001 72.3648 84.9907 72.8615 85.2644C73.3584 85.5327 74.0295 85.6967 74.8747 85.7566C74.7533 85.8759 74.6224 86.038 74.482 86.2428C74.347 86.4476 74.2394 86.6279 74.1594 86.7838C73.5282 86.699 72.9922 86.5565 72.5515 86.3564C72.1162 86.1563 71.7552 85.8883 71.4685 85.5523C71.1818 85.2164 70.9403 84.8052 70.7441 84.3185L71.7912 84.0925ZM70.7472 81.0265L71.923 81.0059L71.8409 83.3565C71.8311 83.639 71.7893 83.9194 71.7156 84.1977C71.6421 84.4706 71.5236 84.7364 71.36 84.9949C71.1966 85.2481 70.9777 85.489 70.7033 85.7175C70.4288 85.946 70.0884 86.1571 69.6819 86.3506C69.2755 86.5441 68.7899 86.7151 68.2251 86.8634C68.1854 86.7789 68.1277 86.6787 68.0518 86.5628C67.9757 86.4523 67.8917 86.3392 67.7998 86.2236C67.7077 86.1134 67.6204 86.019 67.5379 85.9406C68.0695 85.8247 68.5163 85.6971 68.8783 85.5576C69.2457 85.4127 69.5443 85.2557 69.774 85.0865C70.0038 84.9174 70.1806 84.7385 70.3044 84.5499C70.4336 84.3612 70.5229 84.1679 70.5725 83.9699C70.6273 83.7719 70.6584 83.5689 70.6657 83.361L70.7472 81.0265ZM79.0574 79.5231L82.9528 79.4551L82.9143 80.5584L79.0189 80.6264L79.0574 79.5231ZM80.824 82.0411L82.0159 82.0203L81.9006 85.3223C81.8903 85.6155 81.8476 85.8479 81.7723 86.0197C81.7023 86.1914 81.5645 86.3243 81.3587 86.4184C81.1637 86.5071 80.9326 86.5644 80.6652 86.5904C80.3978 86.6163 80.0935 86.6323 79.7522 86.6383C79.7368 86.4681 79.6985 86.269 79.6372 86.041C79.5812 85.8129 79.5187 85.6169 79.4499 85.453C79.583 85.456 79.7214 85.4589 79.8652 85.4617C80.009 85.4645 80.1396 85.4649 80.2569 85.4629C80.3795 85.4607 80.4649 85.4592 80.5129 85.4584C80.5875 85.4571 80.6385 85.4456 80.666 85.4238C80.6934 85.402 80.708 85.3644 80.7099 85.3111L80.824 82.0411ZM78.6438 81.7516L83.0752 81.6742L83.0366 82.7776L78.6053 82.8549L78.6438 81.7516ZM76.6928 82.9123L77.7443 81.8712L77.8944 81.9245L77.7277 86.6976L76.5599 86.7179L76.6928 82.9123ZM77.6595 80.8659L78.7486 81.2703C78.5279 81.6364 78.2699 82.0058 77.9744 82.3785C77.6843 82.7511 77.3789 83.1027 77.0583 83.4332C76.743 83.7637 76.4345 84.0514 76.1328 84.2964C76.0825 84.212 76.0115 84.1067 75.92 83.9805C75.8338 83.8541 75.7423 83.7279 75.6455 83.6017C75.5486 83.4756 75.4616 83.3732 75.3844 83.2947C75.6629 83.1034 75.9399 82.8775 76.2154 82.617C76.4965 82.351 76.7622 82.0694 77.0124 81.7721C77.2627 81.4694 77.4785 81.1673 77.6595 80.8659ZM77.425 79.1121L78.5286 79.5563C78.3169 79.821 78.0783 80.0915 77.8128 80.3678C77.5529 80.6387 77.2801 80.8965 76.9944 81.1412C76.7141 81.3858 76.4374 81.601 76.1645 81.7869C76.1197 81.6971 76.062 81.5942 75.9914 81.4783C75.921 81.357 75.8479 81.2384 75.772 81.1225C75.6961 81.0067 75.6248 80.912 75.5581 80.8386C75.7869 80.6961 76.0193 80.5269 76.2553 80.3311C76.4915 80.1298 76.7119 79.9236 76.9164 79.7123C77.1265 79.4955 77.296 79.2955 77.425 79.1121Z" fill="#1F2937"/>
<g clip-path="url(#clip0_42_13699)">
<path d="M24.9078 50.4049C24.344 50.4147 23.8882 50.2115 23.5405 49.7951C23.1929 49.3788 23.0792 48.888 23.1996 48.3227L23.6379 46.1427C23.8292 45.2744 24.2617 44.5578 24.9355 43.9929C25.6092 43.428 26.379 43.138 27.2449 43.1229C28.1308 43.1075 28.8914 43.3707 29.5265 43.9128C30.1615 44.4549 30.5445 45.1572 30.6754 46.0198L30.9619 48.1872C31.0429 48.749 30.8948 49.2444 30.5176 49.6734C30.1404 50.1023 29.6699 50.3218 29.1061 50.3316L24.9078 50.4049ZM25.717 47.977L28.4656 47.9291L28.2756 46.454C28.2451 46.1729 28.1222 45.9488 27.9067 45.7815C27.6911 45.6143 27.4424 45.5332 27.1605 45.5381C26.8786 45.543 26.629 45.6329 26.4116 45.8076C26.1942 45.9824 26.0604 46.211 26.0103 46.4935L25.717 47.977ZM16.1982 51.7336C15.7344 51.7618 15.3398 51.6782 15.0146 51.4827C14.6894 51.2872 14.4839 50.9791 14.3979 50.5582C14.364 50.3777 14.3602 50.1968 14.3867 50.0153C14.4132 49.8338 14.4695 49.6618 14.5557 49.4994C14.5549 49.5195 14.5463 49.4794 14.5297 49.3792C14.4908 49.3396 14.3986 49.0999 14.2529 48.6599C14.2211 48.4191 14.2594 48.1871 14.3678 47.9639C14.4762 47.7408 14.6138 47.5473 14.7805 47.3835L14.843 47.322C14.8966 46.9389 15.0639 46.6142 15.3449 46.3478C15.6258 46.0814 15.9677 45.9447 16.3704 45.9377C16.4308 45.9366 16.6207 45.9735 16.9401 46.0484L17.0317 46.0166C17.1359 45.9142 17.2694 45.8365 17.4323 45.7833C17.5951 45.7302 17.7672 45.7021 17.9484 45.6989C18.1699 45.695 18.365 45.7268 18.5337 45.7943C18.7024 45.8617 18.8346 45.965 18.9303 46.1042C18.9505 46.1038 18.9654 46.1086 18.9751 46.1185C18.9848 46.1284 18.9998 46.1331 19.0199 46.1328C19.3011 46.148 19.5448 46.2292 19.7509 46.3765C19.9571 46.5237 20.1059 46.7273 20.1975 46.9872C20.2328 47.1274 20.2432 47.263 20.2286 47.394C20.2139 47.525 20.1844 47.6512 20.1399 47.7727C20.1392 47.7928 20.1478 47.8329 20.1659 47.8929C20.3019 48.0313 20.4072 48.1854 20.4818 48.355C20.5563 48.5247 20.5904 48.7001 20.5841 48.8813C20.5813 48.9618 20.5135 49.1741 20.3808 49.5184C20.3592 49.559 20.3578 49.5993 20.3765 49.6392L20.4201 50.1212C20.4053 50.5438 20.2165 50.9092 19.8536 51.2172C19.4906 51.5253 19.0575 51.6837 18.5541 51.6925L16.1982 51.7336ZM36.6149 51.4074C35.9504 51.419 35.3898 51.1924 34.9331 50.7277C34.4765 50.263 34.2597 49.6986 34.2829 49.0344C34.2913 48.7929 34.3345 48.5658 34.4123 48.3533C34.4902 48.1407 34.593 47.9327 34.7209 47.7294L33.9015 46.9894C33.7058 46.8319 33.6776 46.6312 33.8169 46.3874C33.9562 46.1436 34.1467 46.0196 34.3883 46.0154L36.8046 45.9732C37.4691 45.9616 38.0297 46.1882 38.4864 46.6529C38.943 47.1176 39.1598 47.682 39.1366 48.3462L39.1155 48.95C39.0923 49.6142 38.8359 50.1869 38.3461 50.6681C37.8564 51.1494 37.2793 51.3958 36.6149 51.4074ZM12.241 57.8671L12.3074 55.9652C12.3384 55.0796 12.8112 54.3623 13.7258 53.8133C14.6405 53.2643 15.8127 52.9774 17.2423 52.9524C17.5041 52.9478 17.7556 52.9485 17.9969 52.9543C18.2381 52.9602 18.4688 52.9813 18.6889 53.0177C18.393 53.4251 18.1664 53.8615 18.0093 54.3269C17.8522 54.7923 17.7645 55.2866 17.7462 55.8099L17.6777 57.7722L12.241 57.8671ZM19.4899 57.7406L19.5584 55.7783C19.6041 54.47 20.3105 53.4017 21.6777 52.5733C23.0448 51.7448 24.8057 51.3118 26.9602 51.2742C29.1349 51.2362 30.8726 51.6082 32.1735 52.3901C33.4743 53.1719 34.1019 54.217 34.0562 55.5252L33.9877 57.4876L19.4899 57.7406ZM36.5727 52.615C38.0225 52.5897 39.181 52.836 40.0484 53.3539C40.9157 53.8718 41.334 54.5735 41.303 55.4591L41.2366 57.361L35.7999 57.4559L35.8685 55.4936C35.8867 54.9703 35.8385 54.4783 35.7238 54.0177C35.6091 53.5571 35.4279 53.1278 35.1802 52.7298C35.4031 52.6857 35.6305 52.6566 35.8624 52.6425C36.0943 52.6284 36.3311 52.6192 36.5727 52.615ZM26.8759 53.6894C25.7281 53.7094 24.6959 53.8783 23.7793 54.196C22.8626 54.5137 22.3167 54.8753 22.1416 55.2806L31.5349 55.1166C31.3678 54.7173 30.8414 54.3745 29.9559 54.0882C29.0704 53.8019 28.0437 53.669 26.8759 53.6894Z" fill="#3170FD"/>
</g>
<path d="M15.9489 119.078C16.8215 118.414 17.7892 117.885 18.8521 117.492C19.915 117.099 21.0214 116.892 22.1712 116.872C23.3211 116.852 24.4144 117.02 25.4511 117.377C26.4879 117.733 27.4198 118.229 28.247 118.864C28.8541 118.171 29.3353 117.388 29.6905 116.516C30.0457 115.644 30.2404 114.717 30.2747 113.734C30.3521 111.519 29.6389 109.646 28.1352 108.116C26.6315 106.586 24.7715 105.84 22.5551 105.879C20.3388 105.918 18.4244 106.729 16.8119 108.314C15.1994 109.898 14.3545 111.798 14.2772 114.014C14.2428 114.996 14.373 115.918 14.6677 116.778C14.9624 117.639 15.3895 118.406 15.9489 119.078ZM19.7893 113.905C19.1379 113.242 18.8294 112.419 18.8637 111.437C18.898 110.454 19.2644 109.619 19.9629 108.933C20.6613 108.247 21.5022 107.895 22.4853 107.878C23.4685 107.861 24.2858 108.183 24.9371 108.846C25.5885 109.509 25.897 110.332 25.8627 111.315C25.8283 112.297 25.462 113.132 24.7635 113.818C24.065 114.505 23.2242 114.856 22.241 114.873C21.2579 114.891 20.4406 114.568 19.7893 113.905ZM21.927 123.868C20.5438 123.892 19.2532 123.652 18.055 123.149C16.8569 122.646 15.8236 121.952 14.9551 121.068C14.0867 120.184 13.4112 119.139 12.9287 117.932C12.4463 116.726 12.2292 115.431 12.2775 114.049C12.3257 112.666 12.6336 111.362 13.201 110.137C13.7683 108.912 14.5177 107.842 15.4489 106.927C16.3802 106.012 17.4632 105.281 18.6981 104.735C19.9329 104.189 21.2418 103.904 22.6249 103.88C24.0081 103.856 25.2987 104.096 26.4969 104.599C27.695 105.103 28.7283 105.796 29.5968 106.68C30.4652 107.564 31.1407 108.609 31.6232 109.816C32.1056 111.022 32.3227 112.317 32.2744 113.7C32.2261 115.082 31.9183 116.386 31.3509 117.611C30.7836 118.836 30.0342 119.906 29.103 120.821C28.1717 121.736 27.0886 122.467 25.8538 123.013C24.619 123.559 23.3101 123.844 21.927 123.868ZM24.5099 121.438C25.3021 121.166 26.0316 120.783 26.6984 120.289C26.0654 119.817 25.3617 119.459 24.5875 119.215C23.8133 118.97 22.9846 118.856 22.1014 118.871C21.2183 118.886 20.3805 119.03 19.5883 119.302C18.7961 119.574 18.0666 119.957 17.3998 120.451C18.0328 120.923 18.7365 121.281 19.5107 121.526C20.2849 121.77 21.1136 121.885 21.9968 121.869C22.8799 121.854 23.7177 121.71 24.5099 121.438ZM23.4005 112.431C23.6937 112.143 23.8478 111.782 23.863 111.349C23.8781 110.916 23.749 110.561 23.4755 110.282C23.2021 110.004 22.8488 109.869 22.4155 109.877C21.9823 109.884 21.6191 110.032 21.3259 110.32C21.0327 110.608 20.8785 110.969 20.8634 111.402C20.8483 111.835 20.9774 112.19 21.2508 112.469C21.5242 112.747 21.8776 112.882 22.3108 112.875C22.7441 112.867 23.1073 112.719 23.4005 112.431Z" fill="#B0DBB7"/>
<path d="M39.945 118.659C40.8175 117.995 41.7853 117.466 42.8482 117.073C43.9111 116.68 45.0175 116.473 46.1673 116.453C47.3172 116.433 48.4105 116.601 49.4472 116.958C50.484 117.314 51.4159 117.81 52.2431 118.445C52.8502 117.752 53.3314 116.969 53.6865 116.097C54.0417 115.226 54.2365 114.298 54.2708 113.316C54.3482 111.1 53.635 109.227 52.1313 107.697C50.6276 106.167 48.7676 105.421 46.5512 105.46C44.3349 105.499 42.4205 106.31 40.808 107.895C39.1955 109.479 38.3506 111.379 38.2733 113.595C38.2389 114.577 38.3691 115.499 38.6638 116.36C38.9585 117.22 39.3856 117.987 39.945 118.659ZM43.7854 113.486C43.134 112.823 42.8255 112 42.8598 111.018C42.8941 110.035 43.2605 109.2 43.959 108.514C44.6574 107.828 45.4983 107.476 46.4814 107.459C47.4646 107.442 48.2819 107.764 48.9332 108.427C49.5846 109.09 49.8931 109.913 49.8588 110.896C49.8244 111.878 49.4581 112.713 48.7596 113.399C48.0611 114.086 47.2203 114.437 46.2371 114.455C45.254 114.472 44.4367 114.149 43.7854 113.486ZM45.923 123.449C44.5399 123.473 43.2493 123.234 42.0511 122.73C40.853 122.227 39.8197 121.533 38.9512 120.649C38.0828 119.766 37.4073 118.72 36.9248 117.514C36.4424 116.307 36.2253 115.012 36.2736 113.63C36.3218 112.247 36.6297 110.943 37.1971 109.718C37.7644 108.493 38.5138 107.423 39.445 106.508C40.3763 105.593 41.4593 104.862 42.6941 104.316C43.9289 103.77 45.2379 103.485 46.621 103.461C48.0042 103.437 49.2948 103.677 50.493 104.18C51.6911 104.684 52.7244 105.377 53.5929 106.261C54.4613 107.145 55.1368 108.19 55.6192 109.397C56.1017 110.603 56.3188 111.898 56.2705 113.281C56.2222 114.663 55.9144 115.967 55.347 117.192C54.7796 118.417 54.0303 119.487 53.099 120.402C52.1678 121.318 51.0847 122.048 49.8499 122.594C48.6151 123.14 47.3062 123.425 45.923 123.449ZM48.506 121.019C49.2982 120.748 50.0277 120.364 50.6945 119.87C50.0615 119.398 49.3578 119.04 48.5836 118.796C47.8094 118.551 46.9807 118.437 46.0975 118.452C45.2143 118.467 44.3766 118.611 43.5844 118.883C42.7922 119.155 42.0627 119.538 41.3959 120.032C42.0289 120.504 42.7326 120.862 43.5067 121.107C44.2809 121.351 45.1096 121.466 45.9928 121.45C46.876 121.435 47.7138 121.291 48.506 121.019ZM47.3966 112.012C47.6898 111.724 47.8439 111.364 47.8591 110.93C47.8742 110.497 47.745 110.142 47.4716 109.864C47.1982 109.585 46.8449 109.45 46.4116 109.458C45.9784 109.465 45.6151 109.613 45.322 109.901C45.0288 110.189 44.8746 110.55 44.8595 110.983C44.8444 111.416 44.9735 111.772 45.2469 112.05C45.5203 112.328 45.8737 112.463 46.3069 112.456C46.7402 112.448 47.1034 112.3 47.3966 112.012Z" fill="#E8A1CE"/>
<path d="M64.9411 118.223C65.8136 117.558 66.7814 117.03 67.8443 116.637C68.9072 116.243 70.0136 116.037 71.1634 116.017C72.3133 115.997 73.4065 116.165 74.4433 116.521C75.4801 116.878 76.412 117.373 77.2392 118.008C77.8463 117.315 78.3274 116.533 78.6826 115.661C79.0378 114.789 79.2326 113.862 79.2669 112.879C79.3443 110.664 78.6311 108.791 77.1274 107.261C75.6237 105.731 73.7637 104.985 71.5473 105.023C69.331 105.062 67.4166 105.874 65.8041 107.458C64.1916 109.043 63.3467 110.943 63.2694 113.158C63.235 114.141 63.3652 115.063 63.6599 115.923C63.9546 116.783 64.3817 117.55 64.9411 118.223ZM68.7814 113.05C68.1301 112.387 67.8216 111.564 67.8559 110.581C67.8902 109.598 68.2566 108.764 68.9551 108.078C69.6535 107.391 70.4943 107.039 71.4775 107.022C72.4607 107.005 73.278 107.328 73.9293 107.991C74.5807 108.654 74.8892 109.476 74.8548 110.459C74.8205 111.442 74.4541 112.276 73.7557 112.963C73.0572 113.649 72.2164 114.001 71.2332 114.018C70.2501 114.035 69.4328 113.712 68.7814 113.05ZM70.9191 123.013C69.536 123.037 68.2454 122.797 67.0472 122.294C65.8491 121.79 64.8158 121.097 63.9473 120.213C63.0788 119.329 62.4034 118.284 61.9209 117.077C61.4385 115.87 61.2214 114.576 61.2697 113.193C61.3179 111.811 61.6258 110.507 62.1931 109.282C62.7605 108.057 63.5099 106.987 64.4411 106.071C65.3724 105.156 66.4554 104.426 67.6902 103.88C68.925 103.334 70.234 103.049 71.6171 103.025C73.0003 103.001 74.2909 103.24 75.4891 103.744C76.6872 104.247 77.7205 104.941 78.589 105.824C79.4574 106.708 80.1329 107.753 80.6153 108.96C81.0978 110.167 81.3149 111.462 81.2666 112.844C81.2183 114.227 80.9105 115.53 80.3431 116.755C79.7757 117.981 79.0264 119.051 78.0951 119.966C77.1639 120.881 76.0808 121.612 74.846 122.157C73.6112 122.703 72.3023 122.988 70.9191 123.013ZM73.5021 120.583C74.2943 120.311 75.0238 119.928 75.6906 119.433C75.0575 118.962 74.3539 118.604 73.5797 118.359C72.8055 118.115 71.9768 118 71.0936 118.016C70.2104 118.031 69.3727 118.175 68.5805 118.446C67.7883 118.718 67.0588 119.101 66.392 119.596C67.025 120.067 67.7286 120.426 68.5028 120.67C69.277 120.915 70.1057 121.029 70.9889 121.014C71.8721 120.998 72.7099 120.855 73.5021 120.583ZM72.3927 111.576C72.6859 111.288 72.84 110.927 72.8552 110.494C72.8703 110.061 72.7411 109.705 72.4677 109.427C72.1943 109.149 71.841 109.013 71.4077 109.021C70.9745 109.029 70.6112 109.176 70.3181 109.465C70.0249 109.753 69.8707 110.113 69.8556 110.546C69.8405 110.979 69.9696 111.335 70.243 111.613C70.5164 111.891 70.8698 112.027 71.303 112.019C71.7363 112.012 72.0995 111.864 72.3927 111.576Z" fill="#E3E37D"/>
<defs>
<filter id="filter0_d_42_13699" x="0" y="0" width="132" height="153.886" filterUnits="userSpaceOnUse" color-interpolation-filters="sRGB">
<feFlood flood-opacity="0" result="BackgroundImageFix"/>
<feColorMatrix in="SourceAlpha" type="matrix" values="0 0 0 0 0 0 0 0 0 0 0 0 0 0 0 0 0 0 127 0" result="hardAlpha"/>
<feOffset dx="3" dy="-2"/>
<feGaussianBlur stdDeviation="2"/>
<feComposite in2="hardAlpha" operator="out"/>
<feColorMatrix type="matrix" values="0 0 0 0 0.528109 0 0 0 0 0.669745 0 0 0 0 0.980431 0 0 0 1 0"/>
<feBlend mode="normal" in2="BackgroundImageFix" result="effect1_dropShadow_42_13699"/>
<feBlend mode="normal" in="SourceGraphic" in2="effect1_dropShadow_42_13699" result="shape"/>
</filter>
<clipPath id="clip0_42_13699">
<rect width="29" height="29" fill="white" transform="matrix(0.999848 -0.0174524 -0.0348995 0.999391 13 36.1309)"/>
</clipPath>
</defs>
</svg>
