<svg width="133" height="148" viewBox="0 0 133 148" fill="none" xmlns="http://www.w3.org/2000/svg">
<g filter="url(#filter0_d_40_381)">
<path d="M4 23.8675C4 18.8073 7.77996 14.5446 12.8038 13.9393L116.866 1.40164C122.972 0.666008 128.289 5.56384 128.055 11.7093L124.299 110.62C124.124 115.241 120.802 119.14 116.268 120.046L15.9612 140.108C9.77324 141.345 4 136.612 4 130.302V23.8675Z" fill="white"/>
</g>
<path d="M20.5894 58.4432C20.8268 58.5409 21.0933 58.6602 21.3889 58.8012C21.6845 58.9422 21.9829 59.0906 22.2839 59.2467C22.5903 59.4018 22.8755 59.5525 23.1397 59.6989C23.4092 59.8443 23.6312 59.974 23.8058 60.0878L22.9096 61.346C22.74 61.2153 22.5229 61.0661 22.2584 60.8984C21.9991 60.7246 21.7161 60.5494 21.4096 60.373C21.1082 60.1958 20.8122 60.0282 20.5216 59.8704C20.231 59.7126 19.9749 59.5808 19.7531 59.4751L20.5894 58.4432ZM24.3252 56.4956C24.274 56.5897 24.2204 56.7003 24.1643 56.8272C24.1134 56.948 24.0679 57.0731 24.0276 57.2027C23.9521 57.4449 23.8482 57.7241 23.716 58.0401C23.5889 58.3499 23.4358 58.6749 23.2567 59.015C23.0775 59.3551 22.8722 59.697 22.6406 60.0408C22.27 60.5845 21.8259 61.117 21.3081 61.6381C20.7956 62.1583 20.1645 62.6323 19.4147 63.0601L18.2949 62.2776C18.8734 61.9912 19.3626 61.6963 19.7626 61.3927C20.1625 61.0839 20.502 60.7748 20.7812 60.4654C21.0657 60.1551 21.3135 59.8538 21.5248 59.5615C21.6845 59.342 21.8387 59.0995 21.9874 58.834C22.136 58.5684 22.2638 58.3092 22.3706 58.0562C22.4826 57.7969 22.5584 57.5733 22.5979 57.3852L20.0855 57.8184L20.4951 56.6522L22.5835 56.2921C22.7143 56.2695 22.8503 56.2381 22.9914 56.1978C23.1377 56.1512 23.2604 56.1034 23.3594 56.0544L24.3252 56.4956ZM21.7412 55.6696C21.6334 55.8481 21.5283 56.0369 21.426 56.2358C21.3237 56.4347 21.247 56.5838 21.1958 56.6833C21.0118 57.0509 20.7783 57.443 20.4952 57.8597C20.2121 58.2764 19.9027 58.6816 19.5669 59.0754C19.2311 59.4691 18.8895 59.8213 18.5421 60.1317L17.503 59.5032C17.965 59.1303 18.351 58.7625 18.661 58.3999C18.9761 58.031 19.2365 57.6849 19.4421 57.3615C19.6528 57.032 19.8248 56.7438 19.9579 56.4969C20.0298 56.3725 20.1037 56.2132 20.1799 56.0188C20.2612 55.8182 20.3217 55.6371 20.3616 55.4756L21.7412 55.6696ZM31.6927 54.8575C31.6567 54.917 31.6055 55.0111 31.539 55.1399C31.4725 55.2686 31.419 55.3872 31.3784 55.4954C31.2717 55.7591 31.1393 56.0591 30.9811 56.3956C30.828 56.7259 30.6515 57.0656 30.4515 57.4146C30.2567 57.7627 30.046 58.0949 29.8193 58.4113C29.5308 58.8075 29.2081 59.2044 28.8513 59.6018C28.4998 59.9929 28.1269 60.3638 27.7328 60.7143C27.3439 61.0586 26.9492 61.3638 26.5488 61.6302L25.5458 60.7555C25.9677 60.5228 26.3785 60.2467 26.7782 59.9272C27.1779 59.6077 27.546 59.275 27.8825 58.9291C28.2189 58.5832 28.5006 58.2601 28.7275 57.9597C28.8976 57.7332 29.0519 57.5013 29.1905 57.2642C29.3342 57.0261 29.4597 56.7966 29.567 56.5755C29.6742 56.3491 29.7528 56.1462 29.8029 55.967C29.7454 55.9769 29.6538 55.9927 29.5282 56.0144C29.4025 56.036 29.2586 56.0609 29.0963 56.0888C28.9341 56.1168 28.764 56.1461 28.586 56.1768C28.4133 56.2066 28.2458 56.2355 28.0835 56.2635C27.9213 56.2914 27.7747 56.3167 27.6439 56.3393C27.5182 56.3609 27.424 56.3772 27.3612 56.388C27.2461 56.4078 27.1231 56.4344 26.9924 56.4676C26.8669 56.4946 26.7466 56.5233 26.6316 56.5538C26.5218 56.5834 26.4303 56.6071 26.3571 56.6251L26.3391 55.2527C26.4334 55.2471 26.5435 55.2388 26.6692 55.2278C26.8002 55.2159 26.926 55.2022 27.0464 55.1867C27.1721 55.1704 27.2716 55.1559 27.3449 55.1433C27.4234 55.1297 27.5333 55.1108 27.6746 55.0864C27.8159 55.0621 27.973 55.035 28.1457 55.0052C28.3237 54.9745 28.5042 54.9434 28.6874 54.9118C28.8759 54.8793 29.0538 54.8486 29.2213 54.8198C29.394 54.79 29.5458 54.7638 29.6767 54.7412C29.8075 54.7187 29.9044 54.702 29.9672 54.6912C30.1661 54.6569 30.3491 54.6146 30.5163 54.5645C30.6887 54.5081 30.8192 54.4563 30.9077 54.409L31.6927 54.8575ZM29.9109 57.5958C30.1119 57.7211 30.329 57.8729 30.5621 58.0513C30.7953 58.2297 31.026 58.4191 31.2542 58.6197C31.4876 58.814 31.7025 59.0035 31.8991 59.1882C32.0956 59.3729 32.2577 59.5316 32.3853 59.6642L31.3067 60.8178C31.1093 60.564 30.8857 60.3146 30.6359 60.0698C30.3913 59.8187 30.131 59.5731 29.855 59.3327C29.5843 59.0915 29.3059 58.865 29.0199 58.6531L29.9109 57.5958ZM40.0372 53.9225C39.986 54.0167 39.9324 54.1272 39.8763 54.2542C39.8255 54.3749 39.7799 54.5 39.7396 54.6296C39.6745 54.8594 39.5836 55.131 39.4671 55.4443C39.3505 55.7576 39.2054 56.0892 39.0316 56.4391C38.8578 56.7889 38.6525 57.1362 38.4158 57.4809C38.0399 58.0202 37.6032 58.522 37.1057 58.9863C36.6081 59.4453 35.9923 59.8926 35.2584 60.3284L34.1144 59.502C34.6774 59.229 35.1511 58.9554 35.5357 58.6812C35.9256 58.406 36.2577 58.1302 36.5321 57.8536C36.8064 57.5718 37.0518 57.2842 37.2683 56.991C37.4334 56.7759 37.5849 56.5339 37.723 56.2648C37.8664 55.9949 37.9862 55.7316 38.0825 55.4751C38.184 55.2124 38.2493 54.9932 38.2785 54.8176L35.7818 55.248L36.1914 54.0818C36.2647 54.0692 36.3746 54.0502 36.5211 54.025C36.6677 53.9997 36.83 53.9717 37.0079 53.941C37.1911 53.9095 37.3691 53.8788 37.5418 53.849C37.7198 53.8183 37.8742 53.7917 38.005 53.7691C38.1411 53.7457 38.2353 53.7294 38.2877 53.7204C38.4185 53.6978 38.5545 53.6664 38.6956 53.6261C38.8419 53.5795 38.9645 53.5317 39.0636 53.4827L40.0372 53.9225ZM37.5 53.0645C37.3922 53.243 37.2871 53.4317 37.1848 53.6306C37.0825 53.8295 37.0058 53.9787 36.9546 54.0782C36.7706 54.4458 36.5422 54.829 36.2694 55.2279C36.0018 55.6206 35.7052 56.005 35.3796 56.381C35.054 56.7517 34.7175 57.0922 34.3701 57.4027L33.2917 56.7809C33.6343 56.5033 33.935 56.2302 34.1938 55.9617C34.4525 55.6931 34.6747 55.4336 34.8603 55.183C35.0458 54.9324 35.2054 54.697 35.3389 54.4767C35.4775 54.2502 35.5981 54.0455 35.7006 53.8626C35.7724 53.7382 35.8464 53.5788 35.9226 53.3845C36.0039 53.1838 36.0644 53.0028 36.1043 52.8413L37.5 53.0645ZM44.6182 51.6213C44.5939 51.7694 44.5519 51.9659 44.4922 52.2108C44.4377 52.4548 44.3548 52.7356 44.2436 53.0534C44.1725 53.2362 44.0938 53.4284 44.0072 53.6299C43.9207 53.8314 43.8338 54.009 43.7467 54.1626C43.7988 54.1377 43.8719 54.1117 43.966 54.0849C44.06 54.0526 44.1567 54.0253 44.2561 54.0028C44.3607 53.9795 44.4496 53.9615 44.5229 53.9488C44.8631 53.8902 45.1471 53.9425 45.3748 54.1058C45.6025 54.2692 45.719 54.5503 45.7243 54.9493C45.7257 55.061 45.7275 55.1939 45.7295 55.3482C45.7367 55.4962 45.744 55.6523 45.7514 55.8162C45.7588 55.9802 45.7661 56.1416 45.7735 56.3003C45.7808 56.4589 45.7853 56.6021 45.787 56.7298L44.6564 56.9247C44.6658 56.8378 44.6723 56.738 44.6761 56.6254C44.6799 56.5128 44.6809 56.3927 44.6792 56.265C44.6828 56.1364 44.6838 56.011 44.6822 55.8886C44.6858 55.7654 44.6869 55.6479 44.6854 55.5362C44.6819 55.2703 44.6141 55.1033 44.4821 55.0355C44.3552 54.9614 44.2211 54.9365 44.0798 54.9609C43.8809 54.9952 43.6723 55.0871 43.4539 55.2367C43.2407 55.3801 43.067 55.5327 42.9327 55.6945C42.8191 55.8367 42.7032 55.9926 42.5847 56.1623C42.4715 56.3258 42.348 56.5123 42.2144 56.722L41.1914 56.1226C41.5017 55.7813 41.778 55.4484 42.0203 55.1241C42.2678 54.7988 42.4812 54.4715 42.6605 54.142C42.8397 53.8072 42.9873 53.4646 43.1034 53.114C43.1739 52.8886 43.2312 52.6575 43.2753 52.4206C43.3245 52.1775 43.353 51.9487 43.3607 51.7341L44.6182 51.6213ZM41.5179 52.8276C41.7173 52.8252 41.9505 52.809 42.2176 52.7789C42.4848 52.7488 42.7231 52.7157 42.9324 52.6797C43.2726 52.621 43.6494 52.548 44.0627 52.4608C44.4812 52.3726 44.9048 52.2729 45.3335 52.1617C45.7675 52.0496 46.1776 51.9255 46.5641 51.7896L46.5709 52.908C46.294 52.9931 45.9908 53.08 45.6615 53.1687C45.3321 53.2522 44.9974 53.3339 44.6575 53.4138C44.3175 53.4884 43.9932 53.5577 43.6845 53.6216C43.381 53.6792 43.1141 53.7279 42.8838 53.7676C42.7791 53.7857 42.6482 53.8082 42.4912 53.8353C42.3341 53.8571 42.1717 53.8771 42.0041 53.8953C41.8365 53.9135 41.6793 53.93 41.5326 53.9446L41.5179 52.8276ZM47.894 54.1913C47.8054 54.2332 47.6959 54.2894 47.5657 54.3599C47.4354 54.425 47.3052 54.4927 47.1749 54.5632C47.0447 54.6336 46.9302 54.6987 46.8313 54.7584C46.5918 54.8956 46.3054 55.0623 45.9723 55.2584C45.6443 55.4535 45.301 55.6753 44.9423 55.9238C44.7188 56.0796 44.5371 56.2255 44.3972 56.3616C44.2573 56.4924 44.154 56.6195 44.0875 56.7429C44.0208 56.861 43.9883 56.9839 43.99 57.1116C43.9911 57.1967 44.0078 57.2658 44.0399 57.3189C44.0774 57.3711 44.1329 57.4095 44.2067 57.4341C44.2857 57.4578 44.3882 57.4694 44.5141 57.469C44.6399 57.4633 44.7944 57.4447 44.9776 57.4131C45.3283 57.3526 45.7101 57.2655 46.123 57.1516C46.5359 57.0325 46.9146 56.9059 47.259 56.7718L47.2361 58.0233C47.0794 58.0717 46.8703 58.129 46.6089 58.1954C46.3528 58.2663 46.0808 58.3318 45.7931 58.3921C45.5054 58.4577 45.2307 58.513 44.969 58.5582C44.5398 58.6322 44.1571 58.6528 43.821 58.6202C43.4901 58.5919 43.2265 58.4934 43.0302 58.3247C42.839 58.1497 42.7412 57.8867 42.7365 57.5356C42.7326 57.2377 42.7946 56.9605 42.9223 56.7039C43.0553 56.441 43.2278 56.198 43.44 55.9749C43.6521 55.7464 43.8828 55.536 44.132 55.3437C44.3812 55.1462 44.6228 54.9686 44.8568 54.8109C45.0959 54.6417 45.3039 54.5019 45.4809 54.3914C45.6577 54.2757 45.8216 54.1728 45.9725 54.0828C46.1234 53.9874 46.2717 53.8926 46.4173 53.7981C46.5891 53.6939 46.7556 53.5905 46.9169 53.4881C47.0833 53.3794 47.2497 53.2681 47.4161 53.1541L47.894 54.1913ZM50.3885 52.9935L54.4946 52.2855L54.5087 53.3547L50.4025 54.0627L50.3885 52.9935ZM50.4107 54.685L54.5169 53.9771L54.5309 55.0462L50.4247 55.7542L50.4107 54.685ZM50.433 56.3845L54.5392 55.6766L54.5532 56.7457L50.4471 57.4537L50.433 56.3845ZM49.5886 51.4041L55.4534 50.3929L55.5396 56.9515L54.3226 57.1614L54.251 51.7118L50.7573 52.3142L50.8289 57.7637L49.6747 57.9627L49.5886 51.4041ZM51.7657 50.0131L53.1651 49.9157C53.0693 50.2095 52.9681 50.4935 52.8616 50.7678C52.755 51.0421 52.6584 51.2773 52.5718 51.4735L51.5172 51.4634C51.5573 51.3179 51.592 51.1626 51.6213 50.9976C51.6558 50.8264 51.685 50.6561 51.709 50.4867C51.7382 50.3164 51.7571 50.1585 51.7657 50.0131ZM56.858 54.2851L60.5716 53.6449L60.5822 54.4507L56.8686 55.091L56.858 54.2851ZM56.6515 50.5462L60.5771 49.8693L60.5879 50.6912L56.6623 51.368L56.6515 50.5462ZM58.1212 49.8129L59.1497 49.6356L59.2239 55.2767L58.1953 55.454L58.1212 49.8129ZM56.6545 55.5678C56.984 55.4896 57.3632 55.4003 57.792 55.2997C58.2208 55.1991 58.6732 55.0917 59.1491 54.9777C59.6302 54.8574 60.106 54.7381 60.5766 54.6196L60.5958 55.488C60.1515 55.6072 59.7019 55.7274 59.2471 55.8485C58.7924 55.9749 58.3559 56.0928 57.9376 56.2022C57.5194 56.3116 57.1378 56.4121 56.7927 56.5036L56.6545 55.5678ZM57.7693 52.9764L57.7725 53.2158L59.5783 52.9045L59.5751 52.6651L57.7693 52.9764ZM57.7576 52.0828L57.7607 52.3222L59.5665 52.0108L59.5634 51.7715L57.7576 52.0828ZM56.8533 51.535L60.4884 50.9082L60.5218 53.4455L56.8867 54.0723L56.8533 51.535ZM60.0177 48.6223L60.5079 49.3934C60.1633 49.5222 59.7847 49.6488 59.3719 49.7732C58.959 49.8924 58.5382 50.0023 58.1093 50.1029C57.6805 50.2035 57.2698 50.2903 56.8773 50.3633C56.8601 50.249 56.8269 50.1187 56.7777 49.9726C56.7285 49.8212 56.677 49.6941 56.6232 49.5914C56.9161 49.5249 57.2142 49.4549 57.5175 49.3812C57.826 49.3014 58.1292 49.2198 58.4271 49.1364C58.725 49.0531 59.0072 48.9698 59.2737 48.8865C59.5453 48.797 59.7933 48.709 60.0177 48.6223ZM60.6138 50.2708L63.2675 49.8133L63.2815 50.8745L60.6278 51.332L60.6138 50.2708ZM62.8043 49.8932L63.8956 49.705C63.8956 49.705 63.8961 49.7369 63.8969 49.8008C63.8977 49.8646 63.8961 49.9368 63.8919 50.0175C63.8929 50.092 63.8937 50.1532 63.8943 50.2011C63.8892 51.0123 63.8799 51.7043 63.8665 52.2771C63.8583 52.8489 63.8435 53.3233 63.8222 53.7002C63.8061 54.0708 63.7785 54.3661 63.7394 54.5861C63.7003 54.8008 63.6499 54.9614 63.5884 55.068C63.4909 55.2341 63.3902 55.358 63.2864 55.4399C63.1825 55.5218 63.0628 55.5904 62.9271 55.6458C62.8019 55.6941 62.6529 55.7358 62.4802 55.7709C62.3076 55.806 62.127 55.8371 61.9385 55.8643C61.9259 55.7065 61.8869 55.5266 61.8212 55.3247C61.7609 55.1272 61.6853 54.9589 61.5943 54.82C61.7515 54.8089 61.893 54.7952 62.0187 54.7788C62.1495 54.7563 62.2542 54.7382 62.3327 54.7247C62.3903 54.7148 62.4399 54.6956 62.4815 54.6671C62.5231 54.6386 62.5618 54.5946 62.5978 54.535C62.6389 54.4693 62.6713 54.3438 62.6951 54.1584C62.7241 53.9721 62.7443 53.7101 62.7556 53.3723C62.7721 53.0282 62.7847 52.5915 62.7935 52.0622C62.8022 51.5276 62.8069 50.8844 62.8075 50.1325L62.8043 49.8932ZM61.2364 48.5401L62.3277 48.352C62.337 49.0594 62.3379 49.7283 62.3304 50.3587C62.3281 50.9829 62.3018 51.5712 62.2513 52.1237C62.206 52.67 62.1236 53.1853 62.0041 53.6698C61.8845 54.1489 61.7146 54.5967 61.4945 55.0132C61.2743 55.4243 60.9882 55.8068 60.6361 56.1608C60.5825 56.0741 60.5105 55.9825 60.4201 55.8861C60.3296 55.7898 60.234 55.6996 60.1332 55.6157C60.0325 55.5318 59.9372 55.4656 59.8473 55.4171C60.158 55.1076 60.4081 54.7766 60.5976 54.4241C60.7871 54.0715 60.9289 53.6899 61.0232 53.2791C61.1175 52.8683 61.1798 52.4231 61.2103 51.9433C61.2406 51.4583 61.2547 50.9361 61.2526 50.3766C61.2504 49.8119 61.245 49.1997 61.2364 48.5401ZM64.7521 49.0135C64.9091 48.9811 65.0634 48.9492 65.2152 48.9177C65.372 48.88 65.4871 48.8522 65.5603 48.8342C65.7433 48.7867 65.9524 48.732 66.1877 48.6701C66.4281 48.6073 66.6896 48.5409 66.9719 48.4709C67.2595 48.3946 67.5653 48.3152 67.8895 48.2327C68.2136 48.1502 68.5561 48.0618 68.9168 47.9676C69.1783 47.9012 69.4476 47.8361 69.7248 47.7723C70.0071 47.7023 70.2764 47.6372 70.5327 47.577C70.789 47.5169 71.0113 47.4679 71.1996 47.4301L71.2238 48.6734C71.0878 48.6969 70.9282 48.7271 70.745 48.764C70.5671 48.8 70.3867 48.8391 70.2036 48.8813C70.0258 48.9226 69.8638 48.9719 69.7177 49.0291C69.5089 49.113 69.3086 49.2382 69.1167 49.4046C68.93 49.5701 68.7647 49.7612 68.6206 49.9779C68.4765 50.1894 68.3641 50.4167 68.2833 50.6598C68.2025 50.8977 68.1637 51.1363 68.1668 51.3757C68.1699 51.6097 68.2119 51.8104 68.2928 51.9777C68.3789 52.1441 68.4961 52.2812 68.6444 52.3889C68.7979 52.4904 68.9773 52.5688 69.1826 52.624C69.3879 52.6739 69.6112 52.7021 69.8526 52.7084C70.0992 52.7139 70.3587 52.7011 70.6311 52.6701L70.2012 54.0878C69.8502 54.1216 69.5118 54.1187 69.186 54.0789C68.8655 54.0435 68.5682 53.9721 68.294 53.8648C68.0197 53.7522 67.7791 53.6044 67.5721 53.4215C67.3702 53.2324 67.2099 53.0094 67.0911 52.7527C66.9775 52.4897 66.9185 52.188 66.914 51.8476C66.9092 51.4806 66.9571 51.1364 67.0578 50.8152C67.1638 50.493 67.2911 50.2072 67.44 49.9576C67.594 49.7018 67.7409 49.4979 67.8805 49.3458C67.7446 49.3853 67.5852 49.4314 67.4023 49.4843C67.2194 49.5371 67.0208 49.5953 66.8066 49.6589C66.5923 49.7225 66.3729 49.7897 66.1482 49.8604C65.9288 49.9302 65.7095 50.0054 65.4902 50.0858C65.2761 50.1601 65.0751 50.2347 64.8872 50.3098L64.7521 49.0135ZM70.1178 49.5359C70.1871 49.6199 70.2592 49.7221 70.3343 49.8424C70.4145 49.9565 70.4894 50.0716 70.5591 50.1875C70.6341 50.3025 70.6958 50.4065 70.7442 50.4995L70.0496 50.9311C69.9418 50.7151 69.845 50.5372 69.7593 50.3974C69.6734 50.2522 69.5665 50.1001 69.4385 49.9409L70.1178 49.5359ZM70.9999 48.9999C71.0692 49.0839 71.144 49.183 71.2242 49.2971C71.3095 49.405 71.3897 49.5165 71.4646 49.6315C71.5448 49.7403 71.6116 49.8381 71.6652 49.9248L70.9787 50.3791C70.8606 50.1702 70.756 49.9989 70.6651 49.8653C70.5741 49.7317 70.462 49.5858 70.3288 49.4275L70.9999 48.9999ZM72.2629 50.4935C72.6179 50.363 73.0407 50.2021 73.5313 50.0109C74.0218 49.8144 74.5123 49.6152 75.0028 49.4133L75.15 50.4356C74.7066 50.6293 74.258 50.8239 73.8042 51.0195C73.3504 51.215 72.9331 51.3936 72.5522 51.5552L72.2629 50.4935ZM72.355 47.9266L75.0087 47.469L75.0228 48.5382L72.3691 48.9958L72.355 47.9266ZM73.2074 46.3242L74.3066 46.1347L74.3908 52.5417C74.3942 52.8024 74.3707 53.0117 74.3203 53.1696C74.27 53.3276 74.172 53.4618 74.0266 53.5721C73.8812 53.6825 73.7039 53.7691 73.4949 53.8318C73.2911 53.8935 73.0479 53.9488 72.7653 53.9975C72.7476 53.8513 72.7061 53.6825 72.6406 53.4912C72.5804 53.3043 72.5154 53.1423 72.4454 53.0051C72.5815 52.9869 72.7177 52.9688 72.8538 52.9507C72.9952 52.9263 73.092 52.9096 73.1443 52.9006C73.2019 52.8906 73.241 52.8732 73.2617 52.8484C73.2823 52.8181 73.2922 52.7764 73.2915 52.7233L73.2074 46.3242ZM75.1462 47.7492L79.5978 46.9817L79.6735 52.7425L78.5351 52.9388L78.4739 48.2791L76.2441 48.6635L76.3061 53.3791L75.2226 53.5659L75.1462 47.7492ZM75.8559 49.6581L78.7922 49.1518L78.8064 50.229L75.87 50.7353L75.8559 49.6581ZM75.9226 51.7418L78.8589 51.2355L78.8735 52.3446L75.9372 52.8509L75.9226 51.7418ZM76.7642 45.7269L77.8399 45.5415L77.9257 52.0762L76.8501 52.2616L76.7642 45.7269ZM81.3102 50.9409L86.5783 50.0325L86.5932 51.1655L81.3251 52.0739L81.3102 50.9409ZM83.2191 44.702L84.4046 44.4976L84.4914 51.1041L83.3059 51.3085L83.2191 44.702ZM80.7282 49.1699L81.8902 48.9696L81.9355 52.4164L80.7735 52.6168L80.7282 49.1699ZM85.9493 48.2697L87.1426 48.0639L87.1879 51.5108L85.9946 51.7166L85.9493 48.2697ZM80.9978 45.7327L82.1441 45.5351L82.1687 47.4101L85.5997 46.8185L85.575 44.9355L86.784 44.7271L86.8236 47.7351L81.0372 48.7328L80.9978 45.7327Z" fill="#1F2937"/>
<rect width="9" height="9" rx="2" transform="matrix(0.981399 -0.169209 0.0131039 0.997364 20.9307 72.1113)" fill="#3479FD"/>
<path d="M24.5338 78.2374L22.408 76.4672L22.9255 75.8438L24.5198 77.1714L27.8513 73.1577L28.3828 73.6002L24.5338 78.2374Z" fill="white"/>
<rect width="53" height="5" rx="2" transform="matrix(0.981399 -0.169209 0.0131039 0.997364 40.5547 70.3779)" fill="#DDDFE3"/>
<rect width="53" height="5" rx="2" transform="matrix(0.981399 -0.169209 0.0131039 0.997364 40.4785 89.3936)" fill="#DDDFE3"/>
<rect width="53" height="5" rx="2" transform="matrix(0.981399 -0.169209 0.0131039 0.997364 40.4102 106.406)" fill="#DDDFE3"/>
<rect x="0.248626" y="0.207039" width="8.5" height="8.5" rx="1.75" transform="matrix(0.981399 -0.169209 0.0131039 0.997364 20.8564 91.1686)" fill="white" stroke="#DDDFE3" stroke-width="0.5"/>
<rect x="0.248626" y="0.207039" width="8.5" height="8.5" rx="1.75" transform="matrix(0.981399 -0.169209 0.0131039 0.997364 20.7876 108.181)" fill="white" stroke="#DDDFE3" stroke-width="0.5"/>
<path d="M23.8588 46.6475L20.3283 43.7075L21.6839 42.0743L23.7972 43.8341L27.9125 38.8762L29.3051 40.0605L23.8588 46.6475ZM23.7539 38.6685L20.2234 35.7286L21.5791 34.0954L23.6924 35.8552L27.8076 30.8973L29.2003 32.0816L23.7539 38.6685ZM31.144 43.3921L31.1178 41.3974L39.9504 39.8745L39.9766 41.8692L31.144 43.3921ZM31.0391 35.4132L31.0129 33.4185L39.8455 31.8956L39.8717 33.8903L31.0391 35.4132Z" fill="#3170FD"/>
<defs>
<filter id="filter0_d_40_381" x="0" y="0.328125" width="132.063" height="146.978" filterUnits="userSpaceOnUse" color-interpolation-filters="sRGB">
<feFlood flood-opacity="0" result="BackgroundImageFix"/>
<feColorMatrix in="SourceAlpha" type="matrix" values="0 0 0 0 0 0 0 0 0 0 0 0 0 0 0 0 0 0 127 0" result="hardAlpha"/>
<feOffset dy="3"/>
<feGaussianBlur stdDeviation="2"/>
<feComposite in2="hardAlpha" operator="out"/>
<feColorMatrix type="matrix" values="0 0 0 0 0.528109 0 0 0 0 0.669745 0 0 0 0 0.980431 0 0 0 1 0"/>
<feBlend mode="normal" in2="BackgroundImageFix" result="effect1_dropShadow_40_381"/>
<feBlend mode="normal" in="SourceGraphic" in2="effect1_dropShadow_40_381" result="shape"/>
</filter>
</defs>
</svg>
