<svg width="150" height="165" viewBox="0 0 150 165" fill="none" xmlns="http://www.w3.org/2000/svg">
<g filter="url(#filter0_d_40_385)">
<path d="M10 14.828C10 9.08087 14.832 4.60074 20.5689 5.02874L140.551 13.9802C145.842 14.375 149.979 18.8272 149.979 24.1285V145.372C149.979 150.619 145.925 154.902 140.693 155.185L20.7109 161.662C14.9231 161.974 10 157.304 10 151.5V14.828Z" fill="white"/>
</g>
<path d="M30.1686 72.6417C30.6535 72.6215 31.2077 72.6008 31.8313 72.5795C32.46 72.5527 33.1154 72.5231 33.7973 72.4906C34.4846 72.4581 35.1585 72.4256 35.8192 72.3933L35.8068 73.4573C35.1678 73.5001 34.5181 73.5403 33.8576 73.578C33.2025 73.6156 32.5739 73.6503 31.972 73.6821C31.3755 73.7192 30.8349 73.7505 30.3501 73.776L30.1686 72.6417ZM30.084 70.3147L36.7478 70.2576L36.7759 71.3372L30.1121 71.3943L30.084 70.3147ZM31.4998 68.7587L35.2116 68.7269L35.2393 69.7906L31.5275 69.8224L31.4998 68.7587ZM31.9265 71.0108L33.2718 71.3593C33.1555 71.6056 33.034 71.8546 32.9071 72.1063C32.7802 72.3527 32.6556 72.5857 32.5333 72.8054C32.4163 73.0251 32.304 73.2207 32.1965 73.3922L31.1718 73.065C31.2681 72.8722 31.3639 72.6581 31.4591 72.4227C31.5597 72.1872 31.6494 71.9464 31.7284 71.7004C31.8126 71.4544 31.8787 71.2245 31.9265 71.0108ZM33.9874 71.8011L35.0054 71.2564C35.2454 71.457 35.4831 71.6763 35.7187 71.9142C35.9541 72.1469 36.1709 72.3823 36.3692 72.6206C36.5674 72.8589 36.7305 73.0788 36.8584 73.2803L35.7875 73.9454C35.6756 73.7437 35.5203 73.5157 35.3216 73.2615C35.1285 73.0125 34.9139 72.761 34.6779 72.5071C34.4471 72.2478 34.2169 72.0124 33.9874 71.8011ZM33.3232 67.4953C33.1176 67.7903 32.8533 68.0912 32.5306 68.3979C32.2132 68.7046 31.8553 68.9957 31.4571 69.271C31.0642 69.5464 30.6517 69.7872 30.2197 69.9936C30.1745 69.898 30.1104 69.7918 30.0274 69.6752C29.9442 69.5533 29.8558 69.4367 29.7622 69.3256C29.6738 69.209 29.5885 69.1084 29.5063 69.0238C29.96 68.8279 30.3883 68.5816 30.7913 68.2849C31.1997 67.9881 31.5622 67.673 31.8789 67.3397C32.1956 67.0063 32.4461 66.6895 32.6303 66.3893L33.8623 66.3788C34.0833 66.6702 34.3223 66.9401 34.5795 67.1885C34.842 67.4369 35.1173 67.6639 35.4054 67.8694C35.6986 68.0695 35.9993 68.2456 36.3073 68.3976C36.6153 68.5496 36.9307 68.6776 37.2534 68.7814C37.1133 68.932 36.9818 69.1037 36.8588 69.2968C36.7411 69.4898 36.6312 69.6747 36.5292 69.8515C36.1298 69.6736 35.7267 69.4558 35.3199 69.198C34.9131 68.9401 34.5352 68.6634 34.1861 68.3678C33.837 68.0721 33.5494 67.7813 33.3232 67.4953ZM42.0371 67.1967L43.1491 67.1871L43.2007 69.1705L42.0887 69.18L42.0371 67.1967ZM41.1775 70.1397L42.1775 70.1311L42.2524 73.0101C42.2578 73.2181 42.2353 73.3782 42.1849 73.4907C42.1399 73.6084 42.049 73.6998 41.912 73.765C41.7748 73.8248 41.6131 73.8609 41.4267 73.8731C41.2458 73.8907 41.0327 73.9005 40.7873 73.9026C40.7628 73.7801 40.722 73.6445 40.6647 73.4957C40.6129 73.3468 40.5561 73.214 40.4943 73.0972C40.6171 73.1015 40.7426 73.1057 40.8707 73.11C41.0041 73.1088 41.0894 73.1081 41.1267 73.1078C41.2119 73.1017 41.2535 73.0614 41.2516 72.9867L41.1775 70.1397ZM43.3895 66.2812L44.4115 66.5044C44.3036 66.66 44.2006 66.8048 44.1028 66.939C44.0103 67.0731 43.9253 67.1912 43.8479 67.2931L43.0499 67.068C43.1109 66.9502 43.1742 66.819 43.2397 66.6744C43.3053 66.5299 43.3553 66.3988 43.3895 66.2812ZM40.9647 66.5739L41.7654 66.2871C41.8536 66.3983 41.9396 66.5229 42.0232 66.6608C42.1121 66.7987 42.1766 66.9208 42.2167 67.0271L41.3687 67.3384C41.3392 67.232 41.2853 67.1071 41.2069 66.9638C41.1285 66.8205 41.0477 66.6905 40.9647 66.5739ZM43.602 70.1429L44.2464 69.6894C44.393 69.7895 44.5428 69.9082 44.6957 70.0456C44.8485 70.1776 44.9664 70.3019 45.0495 70.4185L44.3662 70.9123C44.2938 70.7956 44.1838 70.6659 44.036 70.5231C43.8883 70.3804 43.7436 70.2537 43.602 70.1429ZM40.2328 71.9636C40.5629 71.9394 40.9462 71.9095 41.3827 71.8737C41.8245 71.8379 42.2769 71.7994 42.7399 71.7581L42.7771 72.5737C42.3569 72.62 41.9341 72.6662 41.5085 72.7125C41.0883 72.7588 40.7026 72.7994 40.3515 72.8344L40.2328 71.9636ZM42.2132 69.6589L42.7984 70.3178C42.576 70.3783 42.3346 70.4311 42.0744 70.476C41.8141 70.5155 41.5509 70.5498 41.285 70.5787C41.0189 70.6023 40.7633 70.6205 40.5182 70.6333C40.5052 70.5427 40.473 70.4337 40.4217 70.3061C40.3756 70.1732 40.33 70.0616 40.285 69.9713C40.5085 69.9534 40.7373 69.9301 40.9713 69.9015C41.2106 69.8728 41.4364 69.8388 41.6488 69.7997C41.8663 69.7552 42.0545 69.7082 42.2132 69.6589ZM40.416 67.0106L44.8478 66.9726L44.8676 67.7323L40.4357 67.7703L40.416 67.0106ZM40.6883 67.9441L44.6162 67.9105L44.6343 68.6062L40.7064 68.6399L40.6883 67.9441ZM40.2314 68.8359L45.0632 68.7946L45.0845 69.6103L40.2526 69.6517L40.2314 68.8359ZM40.267 70.8194L45.0989 70.778L45.1203 71.6017L40.2885 71.6431L40.267 70.8194ZM42.6725 69.7829L43.6325 69.7747C43.6337 70.4359 43.6673 71.0089 43.7332 71.4936C43.7992 71.9783 43.8916 72.3535 44.0106 72.6191C44.1347 72.8794 44.2821 73.0088 44.4527 73.0073C44.5114 73.0068 44.558 72.9531 44.5926 72.8461C44.627 72.7338 44.647 72.579 44.6525 72.3817C44.7454 72.4662 44.8514 72.5426 44.9705 72.6109C45.095 72.6792 45.2084 72.7342 45.3109 72.776C45.2573 73.1764 45.1554 73.4626 45.0052 73.6345C44.8603 73.8064 44.6492 73.8935 44.3718 73.8959C44.0412 73.8987 43.7691 73.7944 43.5555 73.5829C43.3473 73.3714 43.1823 73.0768 43.0605 72.6993C42.9386 72.3217 42.8472 71.8852 42.7863 71.3898C42.7306 70.889 42.6927 70.3533 42.6725 69.7829ZM44.1216 71.6583L44.8995 72.0356C44.7301 72.2877 44.5256 72.5267 44.2861 72.7527C44.0464 72.9734 43.7875 73.1703 43.5093 73.3433C43.2366 73.5217 42.9656 73.668 42.6966 73.7822C42.641 73.6974 42.5583 73.5941 42.4485 73.4724C42.3387 73.356 42.2376 73.2609 42.145 73.187C42.3983 73.0835 42.6484 72.9561 42.8952 72.8047C43.1473 72.6532 43.3802 72.4805 43.5938 72.2867C43.8075 72.0929 43.9834 71.8834 44.1216 71.6583ZM37.886 68.8L40.054 68.7815L40.0764 69.6452L37.9085 69.6637L37.886 68.8ZM37.8758 66.5604L39.9717 66.5424L39.9942 67.4061L37.8982 67.4241L37.8758 66.5604ZM37.9148 69.9037L40.0827 69.8851L40.1052 70.7488L37.9372 70.7674L37.9148 69.9037ZM37.5203 67.6593L40.2242 67.6361L40.2477 68.5398L37.5438 68.563L37.5203 67.6593ZM38.4721 71.0267L40.096 71.0128L40.1603 73.484L38.5364 73.4979L38.5131 72.6022L39.2171 72.5962L39.1994 71.9164L38.4954 71.9224L38.4721 71.0267ZM37.9121 71.0315L38.8081 71.0239L38.8803 73.7989L37.9843 73.8066L37.9121 71.0315ZM49.3029 66.5985C49.28 66.7427 49.2396 66.9323 49.1817 67.1675C49.1291 67.4026 49.0481 67.6699 48.9385 67.9695C48.8683 68.1407 48.7903 68.32 48.7044 68.5074C48.6186 68.6948 48.5322 68.8582 48.4452 68.9976C48.4981 68.9811 48.5724 68.9671 48.6681 68.9557C48.7637 68.9388 48.8621 68.9273 48.9633 68.9211C49.0698 68.9149 49.1604 68.9114 49.235 68.9108C49.5817 68.9078 49.8723 69.0067 50.1069 69.2073C50.3415 69.4079 50.464 69.7082 50.4744 70.108C50.4773 70.22 50.4808 70.3533 50.4848 70.5079C50.494 70.6572 50.5035 70.8144 50.5131 70.9796C50.5227 71.1448 50.5323 71.3074 50.5418 71.4673C50.5513 71.6272 50.5577 71.7711 50.561 71.8991L49.4091 71.909C49.4175 71.8236 49.423 71.7249 49.4254 71.6129C49.4278 71.5009 49.4273 71.3809 49.424 71.2529C49.426 71.1249 49.4254 70.9996 49.4222 70.877C49.4244 70.7543 49.424 70.637 49.4211 70.525C49.4141 70.2584 49.3428 70.0804 49.2071 69.9909C49.0766 69.896 48.9394 69.8492 48.7954 69.8505C48.5927 69.8522 48.3809 69.91 48.1598 70.0239C47.9439 70.1324 47.7684 70.2565 47.6334 70.3964C47.5193 70.52 47.4028 70.657 47.284 70.8073C47.1704 70.9523 47.0467 71.1186 46.9129 71.3064L45.8608 70.5395C46.1733 70.2489 46.4512 69.9612 46.6945 69.6765C46.9431 69.3917 47.1569 69.0992 47.3358 68.7991C47.5145 68.4936 47.6609 68.175 47.775 67.8434C47.8441 67.6295 47.8997 67.4077 47.9417 67.1781C47.9889 66.943 48.0151 66.7188 48.0202 66.5055L49.3029 66.5985ZM46.1525 67.2974C46.356 67.3276 46.5939 67.3496 46.8663 67.3633C47.1387 67.3769 47.3816 67.3829 47.5949 67.381C47.9416 67.3781 48.3254 67.3668 48.7463 67.3472C49.1725 67.3275 49.6038 67.2972 50.0401 67.2561C50.4818 67.215 50.8991 67.1581 51.2919 67.0854L51.3131 68.2051C51.0314 68.2448 50.723 68.2821 50.3878 68.317C50.0525 68.3465 49.7118 68.3734 49.3657 68.3977C49.0195 68.4167 48.6892 68.4329 48.3748 68.4462C48.0656 68.4542 47.7937 68.4592 47.559 68.4612C47.4524 68.4621 47.319 68.4633 47.159 68.4646C46.9989 68.4607 46.8334 68.4541 46.6624 68.4449C46.4915 68.4357 46.3312 68.4264 46.1816 68.417L46.1525 67.2974ZM52.6804 69.7052C52.5904 69.7326 52.4794 69.7709 52.3473 69.82C52.2151 69.8638 52.0829 69.9103 51.9508 69.9594C51.8188 70.0085 51.7026 70.0549 51.6024 70.0984C51.3596 70.1965 51.0693 70.3163 50.7316 70.4578C50.3992 70.5993 50.0514 70.7649 49.6883 70.9547C49.462 71.0739 49.2784 71.1902 49.1373 71.3034C48.9961 71.4112 48.8922 71.5214 48.8258 71.634C48.7593 71.7412 48.7276 71.8588 48.731 71.9868C48.7332 72.0721 48.7511 72.1439 48.7846 72.2023C48.8235 72.2606 48.8807 72.3081 48.9563 72.3448C49.0373 72.3814 49.1421 72.4099 49.2706 72.4301C49.399 72.445 49.5566 72.4516 49.7432 72.45C50.1005 72.447 50.4893 72.4223 50.9095 72.3761C51.3296 72.3245 51.7146 72.2598 52.0647 72.1822L52.0572 73.4301C51.8977 73.4528 51.6849 73.476 51.4188 73.4996C51.1582 73.5285 50.8814 73.5495 50.5883 73.5627C50.2954 73.5812 50.0156 73.5916 49.749 73.5939C49.3117 73.5976 48.9212 73.5556 48.5775 73.4679C48.2393 73.3855 47.9689 73.2438 47.7663 73.0429C47.5689 72.8366 47.4656 72.5575 47.4564 72.2057C47.4487 71.9071 47.5084 71.6399 47.6356 71.4042C47.768 71.1631 47.9411 70.9483 48.1549 70.7598C48.3686 70.566 48.6015 70.3934 48.8536 70.2419C49.1056 70.0851 49.35 69.947 49.587 69.8277C49.829 69.6976 50.0396 69.5918 50.2188 69.5103C50.3979 69.4235 50.564 69.3474 50.717 69.2821C50.8698 69.2114 51.02 69.1408 51.1675 69.0702C51.3416 68.9941 51.5103 68.918 51.6737 68.8419C51.8423 68.7605 52.0108 68.6764 52.1792 68.5896L52.6804 69.7052ZM60.3158 69.7838L61.2341 70.3279C61.0734 70.5052 60.9126 70.6799 60.7517 70.8519C60.596 71.0186 60.4504 71.1638 60.3149 71.2876L59.5825 70.814C59.6655 70.7226 59.7507 70.6179 59.8384 70.4998C59.9313 70.3817 60.0188 70.2609 60.101 70.1376C60.1883 70.0089 60.2599 69.8909 60.3158 69.7838ZM56.7793 70.406L57.5186 69.9117C57.6769 70.049 57.8358 70.2103 57.9953 70.3956C58.1547 70.5755 58.271 70.7399 58.3442 70.8886L57.5502 71.4313C57.4876 71.2825 57.3818 71.1128 57.2329 70.9221C57.0837 70.726 56.9326 70.554 56.7793 70.406ZM57.0753 66.4039L60.4352 66.3752L60.5103 69.2622L59.4383 69.2714L59.3877 67.328L57.0998 67.3476L57.0753 66.4039ZM57.2911 67.6259L59.995 67.6028L60.0177 68.4745L57.3138 68.4977L57.2911 67.6259ZM56.7683 68.7503L61.0561 68.7136L61.0815 69.6892L56.7937 69.726L56.7683 68.7503ZM58.3495 69.2487L59.4215 69.2395L59.511 72.6783C59.5169 72.9076 59.5004 73.0917 59.4613 73.2307C59.4224 73.375 59.3347 73.4878 59.1981 73.5689C59.0668 73.65 58.9134 73.6993 58.7379 73.7169C58.5678 73.7396 58.3734 73.752 58.1547 73.7538C58.1403 73.61 58.104 73.445 58.0458 73.2588C57.9876 73.0727 57.9273 72.9079 57.8649 72.7644C57.9557 72.769 58.0464 72.7709 58.1371 72.7701C58.2331 72.7693 58.2998 72.7687 58.3371 72.7684C58.3798 72.768 58.4062 72.7598 58.4165 72.7437C58.4321 72.7276 58.4394 72.7009 58.4384 72.6635L58.3495 69.2487ZM56.5967 72.3034C56.7966 72.195 57.0329 72.0543 57.3058 71.8813C57.5787 71.7083 57.8595 71.53 58.1481 71.3462L58.5227 72.2149C58.3032 72.3874 58.073 72.5627 57.8323 72.7407C57.5967 72.9134 57.3689 73.0753 57.1488 73.2265L56.5967 72.3034ZM59.4154 69.9275C59.4851 70.1455 59.5764 70.3741 59.6893 70.6131C59.8074 70.8467 59.9467 71.0775 60.1074 71.3054C60.268 71.5333 60.4521 71.7424 60.6598 71.9326C60.8726 72.1174 61.1087 72.2727 61.368 72.3985C61.2952 72.4684 61.2122 72.5598 61.1191 72.6726C61.026 72.7854 60.9357 72.9008 60.8481 73.0189C60.7659 73.1422 60.6995 73.2548 60.6488 73.3565C60.4047 73.1986 60.1836 73.0059 59.9857 72.7783C59.7876 72.5453 59.6104 72.2962 59.4541 72.0309C59.3031 71.7602 59.1708 71.4947 59.0573 71.2344C58.9491 70.9687 58.86 70.7242 58.7902 70.5008L59.4154 69.9275ZM54.1052 68.1892L56.5211 68.1685L56.5461 69.1282L54.1301 69.1488L54.1052 68.1892ZM53.7814 69.5838L56.7013 69.5588L56.7267 70.5344L53.8068 70.5595L53.7814 69.5838ZM53.8414 70.9671L54.5566 70.777C54.6208 70.9898 54.6801 71.2186 54.7345 71.4634C54.7887 71.7029 54.8289 71.9132 54.8549 72.0943L54.1004 72.3087C54.0902 72.1222 54.0579 71.9065 54.0035 71.6616C53.9543 71.4114 53.9003 71.1799 53.8414 70.9671ZM53.7643 72.6156C54.0193 72.5761 54.3088 72.5309 54.6329 72.4802C54.9568 72.4241 55.2994 72.3651 55.6605 72.3034C56.0215 72.2363 56.3799 72.1719 56.7357 72.1102L56.8407 73.0692C56.358 73.1746 55.8672 73.2775 55.3684 73.3778C54.8697 73.4833 54.4161 73.5779 54.0075 73.6614L53.7643 72.6156ZM56.0431 70.7083L56.864 70.8932C56.8004 71.1124 56.7394 71.3316 56.6811 71.5507C56.6228 71.7699 56.569 71.957 56.5197 72.112L55.8269 71.934C55.8559 71.8164 55.8845 71.6855 55.9127 71.5413C55.941 71.3971 55.9666 71.2529 55.9895 71.1087C56.0176 70.9591 56.0355 70.8257 56.0431 70.7083ZM54.7633 68.5755L55.7553 68.567L55.8667 72.8455L54.8795 73.038L54.7633 68.5755ZM54.6531 66.1847L55.2611 66.1795L55.2665 66.3874L55.5945 66.3846L55.6022 66.6805C55.4553 66.9804 55.2615 67.3234 55.0209 67.7094C54.7802 68.0954 54.4672 68.4714 54.082 68.8373C54.032 68.7577 53.9657 68.6703 53.8832 68.575C53.8005 68.4744 53.7127 68.3792 53.6197 68.2893C53.532 68.1994 53.4502 68.1308 53.3743 68.0834C53.5881 67.895 53.7749 67.6934 53.9347 67.4787C54.0998 67.264 54.2408 67.0468 54.3578 66.8272C54.4799 66.6021 54.5784 66.388 54.6531 66.1847ZM54.7891 66.1835L55.5811 66.1768C55.7391 66.3034 55.9055 66.446 56.0803 66.6044C56.255 66.7576 56.4191 66.9135 56.5726 67.0722C56.7314 67.2308 56.8606 67.379 56.9602 67.5168L56.2475 68.4188C56.1639 68.2809 56.0505 68.1245 55.9073 67.9498C55.7692 67.7696 55.6207 67.5949 55.4616 67.4256C55.3025 67.2564 55.1495 67.1164 55.0025 67.0056L54.8106 67.0073L54.7891 66.1835ZM62.1245 66.7207L68.5722 66.6654L68.5989 67.6891L62.1511 67.7443L62.1245 66.7207ZM61.7315 68.5318L68.9712 68.4698L68.9981 69.5015L61.7584 69.5635L61.7315 68.5318ZM63.4984 71.2444L67.3543 71.2113L67.3767 72.075L63.5209 72.1081L63.4984 71.2444ZM63.5313 72.5079L67.3872 72.4749L67.4119 73.4266L63.5561 73.4596L63.5313 72.5079ZM64.6448 66.0991L65.8767 66.0886L65.9086 67.3122L64.6766 67.3227L64.6448 66.0991ZM62.8797 69.9138L68.0555 69.8695L68.1541 73.6602L66.9222 73.6708L66.8483 70.8317L64.0724 70.8555L64.1463 73.6945L62.9783 73.7045L62.8797 69.9138ZM66.4169 67.4758L67.7357 67.7285C67.6449 67.9266 67.5616 68.1113 67.4861 68.2825C67.4105 68.4538 67.3424 68.6011 67.2815 68.7242L66.1469 68.478C66.1818 68.3817 66.2163 68.2748 66.2506 68.1571C66.2849 68.0395 66.3165 67.9219 66.3454 67.8044C66.3797 67.6868 66.4035 67.5772 66.4169 67.4758ZM63.1197 67.76L64.274 67.5341C64.3684 67.6773 64.4527 67.8392 64.5267 68.0199C64.6006 68.1953 64.65 68.3522 64.675 68.4906L63.4659 68.7649C63.4463 68.6264 63.402 68.4615 63.333 68.2701C63.2693 68.0787 63.1982 67.9087 63.1197 67.76ZM73.3542 68.7042C73.5621 68.7025 73.7501 68.7515 73.9181 68.8514C74.0914 68.9512 74.2309 69.086 74.3367 69.2558C74.4423 69.4202 74.4978 69.6063 74.5033 69.8143C74.5085 70.0169 74.4627 70.2039 74.3658 70.3754C74.2689 70.5469 74.1365 70.684 73.9685 70.7867C73.8058 70.8894 73.6204 70.9417 73.4124 70.9435C73.2098 70.9452 73.0218 70.8962 72.8485 70.7963C72.6752 70.6965 72.5357 70.5617 72.4299 70.392C72.3241 70.2222 72.2686 70.036 72.2633 69.8334C72.2579 69.6255 72.3037 69.4385 72.4008 69.2723C72.4976 69.1009 72.6301 68.9637 72.7981 68.861C72.9662 68.7582 73.1515 68.706 73.3542 68.7042ZM82.7164 67.8001L83.9737 68.1493C83.6624 69.1012 83.2466 69.9314 82.7263 70.6397C82.2111 71.3427 81.5919 71.94 80.8685 72.4314C80.145 72.9176 79.3125 73.3113 78.3708 73.6127C78.3255 73.5118 78.2556 73.3897 78.1612 73.2465C78.0723 73.1086 77.978 72.9681 77.8782 72.825C77.7786 72.6872 77.6876 72.5733 77.6053 72.4834C78.5059 72.2464 79.2924 71.925 79.9646 71.5193C80.6421 71.1082 81.2075 70.5967 81.661 69.9849C82.1199 69.3731 82.4716 68.6448 82.7164 67.8001ZM79.9344 67.896C80.2154 68.6508 80.5957 69.3275 81.0754 69.926C81.5604 70.5244 82.155 71.0312 82.8593 71.4465C83.5687 71.8564 84.3955 72.1613 85.3395 72.3612C85.2512 72.4526 85.153 72.5707 85.0447 72.7156C84.9416 72.8552 84.844 72.9973 84.7517 73.1421C84.6596 73.2922 84.5857 73.4235 84.53 73.5359C83.5205 73.2833 82.6522 72.9174 81.9249 72.4384C81.203 71.9593 80.5876 71.3726 80.0788 70.6784C79.5751 69.9788 79.1407 69.1719 78.7756 68.2578L79.9344 67.896ZM77.6439 67.2037L85.0276 67.1404L85.0572 68.276L77.6735 68.3393L77.6439 67.2037ZM80.6842 65.9618L81.8841 65.9515L81.9339 67.8628L80.7339 67.8731L80.6842 65.9618ZM87.2241 68.2175L90.6479 68.1882L90.6752 69.2358L87.2513 69.2651L87.2241 68.2175ZM85.8753 70.1968L92.9391 70.1363L92.9678 71.2399L85.904 71.3004L85.8753 70.1968ZM88.7434 69.7163L89.9913 69.7056L90.0558 72.1848C90.0636 72.4833 90.027 72.7156 89.9459 72.8816C89.8704 73.0529 89.7218 73.1849 89.5002 73.2774C89.2837 73.3646 89.0344 73.42 88.7523 73.4438C88.4756 73.4675 88.1719 73.4808 87.8412 73.4836C87.8168 73.3665 87.7734 73.2335 87.7108 73.0848C87.6537 72.9413 87.5887 72.8005 87.5158 72.6625C87.448 72.5191 87.3808 72.3943 87.314 72.2882C87.4688 72.2923 87.6343 72.2962 87.8104 72.3C87.9865 72.3038 88.1466 72.3051 88.2906 72.3039C88.4399 72.3026 88.5413 72.3017 88.5946 72.3013C88.6799 72.3005 88.7356 72.2894 88.7617 72.2678C88.7932 72.2462 88.8082 72.2088 88.8068 72.1555L88.7434 69.7163ZM90.288 68.1912L90.6 68.1886L90.8625 68.1303L91.6214 68.6998C91.4561 68.9038 91.2694 69.1107 91.0615 69.3205C90.8536 69.5302 90.6295 69.7321 90.3891 69.9262C90.1487 70.1149 89.8969 70.2797 89.6338 70.4206C89.562 70.3252 89.4604 70.2141 89.3291 70.0872C89.2031 69.9603 89.0992 69.8599 89.0172 69.7859C89.1955 69.6671 89.3679 69.527 89.5344 69.3656C89.7007 69.1988 89.8511 69.0322 89.9855 68.8658C90.1197 68.694 90.2225 68.5438 90.2938 68.4152L90.288 68.1912ZM88.6441 65.9016L89.892 65.8909L89.9324 67.4424L88.6845 67.4531L88.6441 65.9016ZM85.7825 66.63L92.8062 66.5699L92.8633 68.7611L91.6553 68.7715L91.6268 67.6758L86.955 67.7159L86.9835 68.8115L85.8395 68.8213L85.7825 66.63ZM93.8388 66.585L97.1587 66.5566L97.1847 67.5562L93.8648 67.5847L93.8388 66.585ZM98.1022 68.0683L100.198 68.0504L100.224 69.05L98.1282 69.068L98.1022 68.0683ZM93.6483 68.1785L97.4001 68.1463L97.4265 69.162L93.6747 69.1941L93.6483 68.1785ZM95.8523 69.8554L97.3722 69.8424L97.3983 70.842L95.8783 70.8551L95.8523 69.8554ZM94.9325 65.8717L96.0204 65.8624L96.0945 68.7095L95.0066 68.7188L94.9325 65.8717ZM95.2408 68.8048L96.3048 68.7956L96.3958 72.2905L95.3318 72.2996L95.2408 68.8048ZM97.5384 66.0814L100.634 66.0549L100.717 69.2458L99.5974 69.2554L99.5408 67.0801L97.5648 67.097L97.5384 66.0814ZM97.6542 68.0722L98.7742 68.0626L98.8364 70.4538C98.8403 70.603 98.8614 70.6962 98.8997 70.7332C98.938 70.7702 99.0265 70.7881 99.1652 70.7869C99.1971 70.7866 99.2425 70.7862 99.3011 70.7857C99.3651 70.7852 99.4345 70.7846 99.5091 70.784C99.5838 70.7833 99.6531 70.7827 99.7171 70.7822C99.7811 70.7816 99.8318 70.7812 99.8691 70.7809C99.9545 70.7801 100.018 70.7583 100.059 70.7153C100.106 70.6669 100.136 70.5706 100.148 70.4265C100.166 70.2824 100.176 70.069 100.179 69.7863C100.261 69.8443 100.361 69.9021 100.48 69.9597C100.604 70.012 100.731 70.0616 100.86 70.1085C100.989 70.15 101.102 70.1837 101.199 70.2096C101.172 70.6204 101.116 70.9435 101.032 71.1789C100.952 71.4089 100.829 71.5726 100.66 71.67C100.497 71.7621 100.277 71.8093 100 71.8116C99.9573 71.812 99.9013 71.8125 99.832 71.8131C99.768 71.8136 99.696 71.8142 99.616 71.8149C99.5413 71.8156 99.464 71.8162 99.384 71.8169C99.3093 71.8176 99.24 71.8181 99.176 71.8187C99.112 71.8192 99.0587 71.8197 99.016 71.8201C98.696 71.8228 98.4417 71.785 98.2529 71.7066C98.0695 71.6282 97.9352 71.4907 97.8501 71.2941C97.7703 71.0975 97.7258 70.8232 97.7167 70.4714L97.6542 68.0722ZM94.8143 70.2482C94.9319 70.6685 95.0767 71.0032 95.2485 71.2524C95.4257 71.5015 95.636 71.689 95.8793 71.8149C96.1225 71.9355 96.4019 72.0158 96.7177 72.0557C97.0333 72.0904 97.3911 72.106 97.7911 72.1025C97.9138 72.1015 98.0659 72.1028 98.2473 72.1066C98.4286 72.1051 98.6286 72.1034 98.8473 72.1015C99.0658 72.0943 99.2897 72.0897 99.5191 72.0877C99.7537 72.0857 99.983 72.0838 100.207 72.0818C100.431 72.0746 100.639 72.0675 100.831 72.0605C101.028 72.0481 101.198 72.0387 101.342 72.0321C101.286 72.1179 101.23 72.2304 101.175 72.3695C101.12 72.5033 101.07 72.6424 101.026 72.7867C100.987 72.9364 100.956 73.07 100.932 73.1875L100.38 73.1922L97.8121 73.2142C97.2894 73.2187 96.8245 73.188 96.4174 73.1222C96.0157 73.0616 95.6604 72.9367 95.3514 72.7473C95.0478 72.558 94.7846 72.2829 94.5618 71.9222C94.3443 71.5561 94.1558 71.0778 93.9964 70.4872L94.8143 70.2482ZM93.8923 69.5602L94.9503 69.6311C94.9528 70.1377 94.9417 70.6338 94.917 71.1193C94.8975 71.5994 94.8559 72.0503 94.7922 72.4722C94.7283 72.8887 94.6392 73.2547 94.5247 73.5703C94.4541 73.5229 94.3567 73.4678 94.2323 73.4049C94.1135 73.3472 93.9893 73.2896 93.8598 73.2321C93.7303 73.1745 93.6224 73.1301 93.5363 73.0989C93.6518 72.8259 93.734 72.4999 93.7829 72.1209C93.837 71.7418 93.8717 71.3335 93.887 70.8961C93.9023 70.4587 93.904 70.0134 93.8923 69.5602ZM102.971 66.6828C103.271 66.7122 103.607 66.7333 103.981 66.7461C104.355 66.7589 104.758 66.7635 105.189 66.7598C105.456 66.7575 105.733 66.7498 106.021 66.7367C106.314 66.7235 106.596 66.7077 106.868 66.6894C107.145 66.671 107.387 66.6503 107.594 66.6272L107.628 67.9228C107.442 67.9403 107.21 67.9583 106.933 67.9767C106.657 67.9951 106.369 68.0109 106.071 68.0241C105.772 68.032 105.492 68.037 105.231 68.0393C104.804 68.0429 104.409 68.0383 104.046 68.0254C103.683 68.0072 103.336 67.9888 103.005 67.9703L102.971 66.6828ZM103.934 70.1541C103.905 70.2877 103.879 70.4159 103.856 70.5388C103.837 70.6616 103.83 70.787 103.833 70.9149C103.839 71.1388 103.959 71.3271 104.192 71.4798C104.425 71.6271 104.811 71.6984 105.35 71.6938C105.707 71.6908 106.054 71.6745 106.389 71.6449C106.724 71.6154 107.043 71.5753 107.346 71.5248C107.654 71.4741 107.935 71.4157 108.189 71.3495L108.233 72.725C107.979 72.7805 107.705 72.8282 107.413 72.868C107.121 72.9132 106.809 72.9478 106.479 72.972C106.155 72.9961 105.806 73.0098 105.432 73.013C104.787 73.0185 104.249 72.9511 103.819 72.8108C103.394 72.6758 103.074 72.4759 102.859 72.2111C102.649 71.9409 102.539 71.6139 102.529 71.23C102.523 70.9848 102.536 70.7634 102.568 70.5658C102.606 70.3682 102.636 70.1972 102.659 70.0531L103.934 70.1541ZM112.406 66.122C112.384 66.3089 112.366 66.5143 112.35 66.7384C112.335 66.9625 112.324 67.1626 112.318 67.3386C112.313 67.5467 112.309 67.8027 112.306 68.1067C112.303 68.4053 112.3 68.72 112.298 69.0506C112.296 69.3759 112.296 69.6932 112.299 70.0025C112.302 70.3064 112.306 70.5677 112.312 70.7863C112.318 71.0422 112.366 71.2444 112.455 71.393C112.55 71.5362 112.673 71.6391 112.823 71.7018C112.974 71.7592 113.14 71.7871 113.322 71.7855C113.631 71.7829 113.915 71.7378 114.174 71.6502C114.434 71.5627 114.671 71.446 114.885 71.3002C115.1 71.149 115.296 70.9741 115.472 70.7752C115.648 70.5764 115.805 70.3644 115.943 70.1393L116.851 71.2114C116.734 71.4044 116.571 71.6111 116.364 71.8315C116.161 72.0465 115.913 72.2513 115.619 72.4458C115.331 72.6402 114.996 72.7977 114.615 72.9183C114.235 73.0442 113.812 73.1092 113.348 73.1132C112.884 73.1171 112.48 73.0486 112.135 72.9076C111.79 72.7665 111.52 72.5475 111.325 72.2506C111.136 71.9482 111.036 71.5651 111.024 71.1013C111.018 70.8987 111.015 70.6614 111.013 70.3895C111.011 70.1122 111.009 69.8242 111.007 69.5256C111.009 69.2216 111.01 68.9257 111.007 68.6377C111.005 68.3498 111.004 68.0938 111.003 67.8698C111.003 67.6405 111.001 67.4672 110.998 67.35C110.992 67.1314 110.976 66.9182 110.949 66.7104C110.928 66.4973 110.893 66.3003 110.846 66.1194L112.406 66.122Z" fill="#1F2937"/>
<rect width="65.0877" height="6.14035" rx="2" transform="matrix(0.999931 -0.0117707 0.0292201 0.999573 28.9868 111.226)" fill="#DDDFE3"/>
<rect width="87.193" height="6.14035" rx="2" transform="matrix(0.999931 -0.0117707 0.0292201 0.999573 28.1846 94.0518)" fill="#DDDFE3"/>
<path d="M34.2347 42.7592C33.3954 42.0616 32.9611 41.21 32.9316 40.2045L32.7198 32.9648C32.6903 31.9593 33.0747 31.1015 33.8728 30.3914C34.6708 29.6813 35.6547 29.3218 36.8242 29.3129C37.9938 29.304 38.9982 29.6483 39.8374 30.3459C40.6767 31.0436 41.1111 31.8951 41.1405 32.9007L41.3524 40.1403C41.3818 41.1459 40.9975 42.0037 40.1994 42.7138C39.4013 43.4238 38.4175 43.7834 37.2479 43.7923C36.0784 43.8012 35.074 43.4568 34.2347 42.7592ZM36.0916 52.2493L35.9831 48.5389C33.5422 48.2759 31.5032 47.3561 29.8661 45.7795C28.229 44.2029 27.3796 42.3588 27.3178 40.2472L30.1247 40.2259C30.1736 41.895 30.8994 43.3126 32.3022 44.4786C33.705 45.6447 35.3771 46.2203 37.3186 46.2055C39.26 46.1907 40.8977 45.5899 42.2316 44.403C43.5656 43.2161 44.2081 41.7881 44.1593 40.119L46.9662 40.0976C47.028 42.2092 46.2868 44.0654 44.7428 45.6662C43.1987 47.267 41.2144 48.2175 38.79 48.5175L38.8986 52.2279L36.0916 52.2493ZM38.1671 41.0245C38.4293 40.7912 38.5555 40.5036 38.5455 40.1617L38.3336 32.922C38.3236 32.5802 38.1807 32.2946 37.9049 32.0654C37.6292 31.8362 37.2925 31.7231 36.8948 31.7261C36.4972 31.7291 36.1672 31.8473 35.905 32.0806C35.6428 32.3139 35.5167 32.6015 35.5267 32.9434L35.7385 40.1831C35.7485 40.525 35.8914 40.8105 36.1672 41.0397C36.443 41.269 36.7797 41.3821 37.1773 41.379C37.575 41.376 37.9049 41.2578 38.1671 41.0245Z" fill="#3170FD"/>
<defs>
<filter id="filter0_d_40_385" x="0" y="0" width="149.979" height="164.677" filterUnits="userSpaceOnUse" color-interpolation-filters="sRGB">
<feFlood flood-opacity="0" result="BackgroundImageFix"/>
<feColorMatrix in="SourceAlpha" type="matrix" values="0 0 0 0 0 0 0 0 0 0 0 0 0 0 0 0 0 0 127 0" result="hardAlpha"/>
<feOffset dx="-6" dy="-1"/>
<feGaussianBlur stdDeviation="2"/>
<feComposite in2="hardAlpha" operator="out"/>
<feColorMatrix type="matrix" values="0 0 0 0 0.72549 0 0 0 0 0.839216 0 0 0 0 0.992157 0 0 0 1 0"/>
<feBlend mode="normal" in2="BackgroundImageFix" result="effect1_dropShadow_40_385"/>
<feBlend mode="normal" in="SourceGraphic" in2="effect1_dropShadow_40_385" result="shape"/>
</filter>
</defs>
</svg>
