<svg width="126" height="154" viewBox="0 0 126 154" fill="none" xmlns="http://www.w3.org/2000/svg">
<g filter="url(#filter0_d_40_394)">
<path d="M7 13.0001C7 7.2602 11.8212 2.69834 17.5523 3.01539L115.052 8.409C120.352 8.7022 124.5 13.0855 124.5 18.3937V138.273C124.5 144.046 119.625 148.62 113.863 148.253L16.363 142.029C11.0982 141.693 7 137.325 7 132.05V13.0001Z" fill="white"/>
</g>
<path d="M21.025 60.9201L19.5142 60.8774L21.1979 55.1214L23.0694 55.1743L25.3102 61.0413L23.7994 60.9985L22.2251 56.6127L22.1797 56.6114L21.025 60.9201ZM20.7137 58.6273L23.8715 58.7165L23.9227 59.7835L20.7648 59.6942L20.7137 58.6273ZM27.0635 55.2872L27.342 61.0987L25.9363 61.0589L25.6578 55.2474L27.0635 55.2872ZM31.2578 54.9371C31.2368 55.0535 31.2137 55.1832 31.1886 55.3261C31.1686 55.4639 31.1479 55.5883 31.1266 55.6995C31.1064 55.8319 31.0835 55.9669 31.0582 56.1045C31.0326 56.2368 31.0095 56.3665 30.989 56.4936C30.9682 56.6153 30.9474 56.7371 30.9266 56.8589C30.8843 57.0864 30.828 57.3562 30.7578 57.6681C30.6929 57.9801 30.6131 58.3157 30.5185 58.6748C30.4293 59.034 30.3268 59.3955 30.2112 59.7593C30.0952 60.1178 29.9707 60.4628 29.8375 60.7942C29.7043 61.1256 29.5639 61.4168 29.4162 61.668L28.1286 61.1289C28.308 60.8733 28.4701 60.5906 28.615 60.2808C28.7652 59.9712 28.899 59.6531 29.0165 59.3266C29.1339 59.0001 29.2356 58.6784 29.3216 58.3616C29.4127 58.0397 29.4889 57.7413 29.5502 57.4664C29.6116 57.1915 29.6587 56.9534 29.6917 56.7522C29.7479 56.3707 29.7868 56.0154 29.8083 55.6861C29.8349 55.3517 29.8358 55.0379 29.8111 54.7446L31.2578 54.9371ZM34.0519 55.7502C34.1832 55.9348 34.3218 56.1595 34.4676 56.4243C34.6184 56.6839 34.7647 56.9594 34.9065 57.2507C35.0482 57.542 35.1761 57.8222 35.2902 58.0914C35.4095 58.3608 35.5032 58.5922 35.571 58.7857L34.3587 59.318C34.2995 59.0822 34.2179 58.8246 34.114 58.545C34.0154 58.2655 33.9007 57.983 33.7699 57.6973C33.6442 57.4065 33.5059 57.1313 33.355 56.8717C33.2095 56.6122 33.0604 56.3899 32.9078 56.2047L34.0519 55.7502ZM27.8866 56.4139C28.0417 56.4289 28.1966 56.4386 28.3512 56.4429C28.5055 56.442 28.6626 56.4411 28.8222 56.4403C28.9553 56.4387 29.1148 56.4353 29.3009 56.4299C29.4867 56.4192 29.6832 56.4088 29.8904 56.3987C30.0975 56.3886 30.3047 56.3785 30.5118 56.3684C30.724 56.3531 30.9205 56.3427 31.1013 56.3371C31.282 56.3316 31.4337 56.3306 31.5563 56.334C31.8656 56.3428 32.1347 56.4036 32.3637 56.5165C32.5978 56.6242 32.7845 56.7997 32.924 57.043C33.0634 57.2864 33.1427 57.6078 33.1619 58.0073C33.1767 58.3163 33.1797 58.6569 33.1709 59.029C33.1619 59.3959 33.1335 59.7488 33.0859 60.088C33.0383 60.4271 32.9614 60.7122 32.8554 60.9433C32.7359 61.2272 32.5615 61.4218 32.3323 61.527C32.1033 61.6376 31.8263 61.6883 31.5011 61.6791C31.3465 61.6747 31.1807 61.6594 31.0037 61.6331C30.8268 61.6068 30.6656 61.5757 30.5201 61.5396L30.2513 60.2632C30.3539 60.2927 30.4671 60.3225 30.591 60.3526C30.7202 60.3829 30.8438 60.4076 30.9619 60.4269C31.0799 60.4462 31.171 60.4568 31.2349 60.4586C31.3629 60.4622 31.471 60.4413 31.5594 60.3959C31.6477 60.3506 31.716 60.2754 31.7642 60.1703C31.8271 60.0391 31.8744 59.8596 31.9061 59.6317C31.9375 59.3985 31.9573 59.1464 31.9656 58.8753C31.9739 58.6042 31.9722 58.3461 31.9605 58.1011C31.951 57.904 31.9175 57.7594 31.8598 57.6673C31.8022 57.5752 31.7167 57.5143 31.6035 57.4845C31.4953 57.4495 31.3586 57.4297 31.1934 57.425C31.0814 57.4219 30.9273 57.4281 30.7311 57.4439C30.5346 57.4543 30.325 57.4696 30.1024 57.4899C29.8795 57.5049 29.6727 57.523 29.4821 57.5442C29.2914 57.5654 29.1432 57.5825 29.0373 57.5955C28.9104 57.6132 28.749 57.6326 28.553 57.6536C28.357 57.6747 28.193 57.6967 28.061 57.7195L27.8866 56.4139ZM33.7203 54.6635C33.7942 54.7614 33.8718 54.8806 33.9531 55.0212C34.0395 55.1567 34.1205 55.292 34.1962 55.4271C34.2772 55.5624 34.344 55.6787 34.3966 55.7759L33.6522 56.0741C33.5935 55.9607 33.5265 55.8391 33.451 55.7093C33.3753 55.5742 33.297 55.4389 33.216 55.3036C33.1403 55.1685 33.0627 55.0493 32.9832 54.946L33.7203 54.6635ZM34.6856 54.3078C34.7597 54.411 34.8401 54.5329 34.9267 54.6737C35.0131 54.8091 35.0967 54.9445 35.1778 55.0798C35.2585 55.2098 35.3224 55.3206 35.3694 55.4124L34.633 55.7108C34.5451 55.5434 34.4376 55.3541 34.3103 55.1431C34.1828 54.9267 34.0622 54.7424 33.9484 54.5902L34.6856 54.3078ZM39.0552 58.3335L39.9122 57.7193C40.0793 57.873 40.2603 58.0404 40.4553 58.2215C40.6557 58.4027 40.8536 58.5892 41.0491 58.7809C41.2444 58.9673 41.4262 59.1507 41.5946 59.331C41.7683 59.5114 41.9146 59.6752 42.0334 59.8222L41.1018 60.546C40.9989 60.3994 40.8659 60.2334 40.7026 60.0479C40.5446 59.8626 40.3704 59.6714 40.18 59.4745C39.9946 59.2725 39.8041 59.0755 39.6086 58.8838C39.4128 58.6868 39.2284 58.5033 39.0552 58.3335ZM38.8603 54.6014L40.0598 54.6353L40.1613 56.7528C40.1744 57.0245 40.1691 57.3037 40.1456 57.5903C40.1218 57.8716 40.0715 58.1548 39.9946 58.4399C39.9178 58.725 39.8059 59.0011 39.659 59.2683C39.5121 59.5355 39.3245 59.7882 39.0964 60.0264C38.8682 60.2647 38.5911 60.4803 38.2649 60.6733C38.2075 60.5865 38.1256 60.4884 38.0192 60.379C37.9179 60.2645 37.8113 60.1524 37.6996 60.0428C37.5879 59.9333 37.4824 59.8425 37.3831 59.7705C37.6902 59.6249 37.9432 59.4592 38.1419 59.2733C38.3457 59.0822 38.5038 58.8819 38.6162 58.6722C38.7337 58.4574 38.8164 58.239 38.8643 58.0169C38.9173 57.7896 38.9492 57.5671 38.9601 57.3493C38.9707 57.1262 38.9711 56.9134 38.9614 56.7109L38.8603 54.6014ZM36.1802 55.8343L42.2338 56.0054L42.2882 57.1401L37.4021 57.002L37.6496 62.1641L36.482 62.1311L36.1802 55.8343ZM41.73 55.9912L42.8816 56.0237L43.1221 61.042C43.1361 61.335 43.1124 61.5631 43.051 61.7262C42.9899 61.8948 42.8682 62.0217 42.686 62.1069C42.509 62.1924 42.2905 62.2421 42.0303 62.256C41.7701 62.2699 41.4614 62.2718 41.1042 62.2617C41.0884 62.1549 41.0557 62.0289 41.0062 61.8839C40.9622 61.7443 40.9104 61.6072 40.8507 61.4725C40.7908 61.3325 40.7317 61.2111 40.6736 61.1084C40.8124 61.1177 40.9566 61.1271 41.1061 61.1366C41.261 61.1463 41.3997 61.1529 41.5224 61.1564C41.645 61.1598 41.7303 61.1622 41.7783 61.1636C41.8526 61.1604 41.9027 61.1485 41.9283 61.1279C41.959 61.1022 41.9727 61.0547 41.9694 60.9855L41.73 55.9912ZM46.0095 56.4712L47.1471 56.8785C46.9989 57.119 46.8185 57.3533 46.6058 57.5814C46.3982 57.8043 46.1738 58.0107 45.9327 58.2007C45.6913 58.3854 45.4487 58.5435 45.2048 58.6749C45.1476 58.5935 45.0683 58.4928 44.9667 58.3729C44.8651 58.253 44.7609 58.133 44.6539 58.013C44.547 57.8929 44.4519 57.7971 44.3686 57.7256C44.703 57.5914 45.0166 57.4141 45.3095 57.1936C45.6074 56.9679 45.8408 56.7272 46.0095 56.4712ZM47.9362 57.1801L48.7277 56.5321C48.9468 56.6607 49.1829 56.811 49.4361 56.9831C49.6946 57.1553 49.9425 57.3299 50.1799 57.5068C50.4171 57.6784 50.6112 57.8409 50.7623 57.9941L49.911 58.7281C49.7762 58.5807 49.5979 58.4161 49.3763 58.2342C49.1543 58.0471 48.9165 57.8621 48.6629 57.6794C48.409 57.4913 48.1667 57.3249 47.9362 57.1801ZM47.6784 58.6331C47.4833 58.8936 47.2296 59.1551 46.9174 59.4176C46.605 59.6748 46.2572 59.9176 45.8742 60.1462C45.4965 60.3749 45.1039 60.5686 44.6962 60.7274C44.6489 60.6303 44.5852 60.5221 44.5049 60.4028C44.4244 60.2781 44.3387 60.156 44.2478 60.0364C44.162 59.9116 44.0798 59.8082 44.0013 59.7262C44.4258 59.5839 44.8294 59.3958 45.2121 59.1619C45.6 58.9228 45.9469 58.664 46.253 58.3853C46.5588 58.1014 46.8012 57.8263 46.9801 57.56L48.1796 57.5939C48.4054 57.861 48.6463 58.1099 48.9022 58.3405C49.1632 58.566 49.4339 58.7705 49.7142 58.954C49.9999 59.1376 50.2925 59.3002 50.5921 59.4417C50.897 59.5833 51.2035 59.701 51.5115 59.7948C51.3853 59.9402 51.263 60.1097 51.1445 60.3032C51.0311 60.4915 50.9305 60.6695 50.8427 60.8373C50.5601 60.7176 50.2684 60.5736 49.9675 60.4055C49.6666 60.2374 49.3731 60.0562 49.0869 59.862C48.8061 59.6678 48.5436 59.4662 48.2993 59.2571C48.055 59.0481 47.848 58.8401 47.6784 58.6331ZM45.4072 59.5664L50.0214 59.6968L50.1558 62.5016L48.9723 62.4682L48.8865 60.6782L46.5834 60.6131L46.6692 62.4031L45.5416 62.3712L45.4072 59.5664ZM46.0032 61.1713L49.4978 61.2701L49.5465 62.2849L46.0519 62.1861L46.0032 61.1713ZM46.8251 54.8265L48.0247 54.8604L48.0817 56.051L46.8822 56.0171L46.8251 54.8265ZM43.9982 55.3291L50.9635 55.526L51.0538 57.4118L49.8623 57.3781L49.8221 56.5391L45.184 56.408L45.2242 57.247L44.0886 57.215L43.9982 55.3291ZM55.4713 55.4379C55.4515 55.581 55.4153 55.7689 55.3626 56.0015C55.3151 56.2342 55.2399 56.4981 55.137 56.7931C55.0705 56.9614 54.9964 57.1376 54.9147 57.3215C54.833 57.5053 54.7502 57.6653 54.6662 57.8012C54.7187 57.7867 54.7927 57.7755 54.8882 57.7676C54.9834 57.7543 55.0815 57.7465 55.1825 57.744C55.2889 57.7417 55.3794 57.7416 55.454 57.7437C55.8006 57.7535 56.0933 57.8628 56.3323 58.0717C56.5712 58.2807 56.7002 58.5849 56.7194 58.9844C56.7248 59.0963 56.7311 59.2295 56.7385 59.384C56.751 59.5333 56.7639 59.6906 56.7771 59.8559C56.7904 60.0212 56.8035 60.1838 56.8165 60.3438C56.8295 60.5037 56.839 60.6476 56.8452 60.7755L55.6936 60.743C55.7002 60.658 55.7035 60.5597 55.7034 60.448C55.7034 60.3363 55.7003 60.2165 55.6942 60.0886C55.6934 59.9609 55.6901 59.8358 55.6842 59.7133C55.6837 59.5909 55.6807 59.4738 55.6754 59.3619C55.6626 59.0955 55.5874 58.9152 55.4498 58.8209C55.3172 58.7214 55.179 58.6696 55.035 58.6655C54.8325 58.6598 54.6219 58.7097 54.4033 58.8152C54.1899 58.9156 54.0171 59.0331 53.8852 59.1677C53.7738 59.2869 53.6603 59.4193 53.5448 59.565C53.4345 59.7055 53.3144 59.8671 53.1847 60.0496L52.116 59.2453C52.4221 58.9667 52.6937 58.6898 52.9307 58.4145C53.1731 58.1394 53.3804 57.8553 53.5527 57.5623C53.7247 57.2639 53.8641 56.9513 53.9709 56.6245C54.0353 56.4135 54.0861 56.1941 54.1231 55.9664C54.1651 55.7335 54.1864 55.5107 54.1868 55.2979L55.4713 55.4379ZM52.3367 56.0197C52.5409 56.0574 52.7793 56.088 53.0519 56.1117C53.3246 56.1354 53.5675 56.1502 53.7808 56.1562C54.1273 56.166 54.5108 56.1689 54.9312 56.1648C55.3569 56.1609 55.7874 56.1465 56.2228 56.1215C56.6635 56.0967 57.0795 56.0553 57.4707 55.9972L57.5163 57.1157C57.2355 57.145 56.928 57.1709 56.5936 57.1934C56.259 57.2105 55.919 57.2248 55.5735 57.2363C55.2277 57.2425 54.8978 57.2465 54.5838 57.2483C54.2748 57.2448 54.0031 57.2398 53.7685 57.2332C53.6619 57.2302 53.5286 57.2264 53.3687 57.2219C53.2085 57.212 53.0428 57.1994 52.8717 57.1839C52.7006 57.1684 52.5401 57.1533 52.3904 57.1384L52.3367 56.0197ZM58.9161 58.6635C58.8268 58.6876 58.7166 58.7217 58.5856 58.7659C58.4544 58.8047 58.3233 58.8462 58.1923 58.8904C58.0613 58.9346 57.9462 58.9765 57.8469 59.0163C57.6063 59.1053 57.3187 59.2142 56.9841 59.343C56.6549 59.472 56.3108 59.6246 55.9519 59.8006C55.7283 59.9114 55.5472 60.0206 55.4086 60.1284C55.2698 60.2309 55.1684 60.3371 55.1045 60.447C55.0403 60.5516 55.0112 60.6678 55.0173 60.7957C55.0214 60.8809 55.0409 60.9533 55.0757 61.0128C55.1158 61.0724 55.1741 61.1219 55.2505 61.1613C55.3322 61.2009 55.4376 61.2331 55.5666 61.2581C55.6953 61.2777 55.8529 61.2901 56.0395 61.2954C56.3967 61.3055 56.7849 61.2952 57.204 61.2644C57.6229 61.2284 58.0065 61.1781 58.3547 61.1134L58.3745 62.3589C58.2156 62.3757 58.0034 62.3909 57.7378 62.4047C57.4779 62.424 57.2015 62.4348 56.9088 62.4371C56.6164 62.4448 56.3369 62.4449 56.0703 62.4374C55.6332 62.425 55.2418 62.3687 54.8963 62.2685C54.5563 62.1738 54.2829 62.0224 54.0759 61.8144C53.874 61.6012 53.7647 61.3189 53.7478 60.9673C53.7335 60.6689 53.7874 60.4045 53.9094 60.1738C54.0366 59.938 54.2049 59.73 54.4146 59.5497C54.624 59.3641 54.853 59.2003 55.1018 59.0584C55.3503 58.9111 55.5917 58.7823 55.826 58.6719C56.0651 58.551 56.2733 58.4531 56.4508 58.3783C56.6279 58.2982 56.7923 58.2284 56.9438 58.1688C57.0951 58.1039 57.2437 58.039 57.3897 57.974C57.5621 57.9043 57.7291 57.8346 57.8908 57.7647C58.0575 57.6896 58.2242 57.6118 58.3907 57.5314L58.9161 58.6635ZM60.6948 57.2853L62.862 57.3466L62.9022 58.1856L60.735 58.1244L60.6948 57.2853ZM60.7561 58.5639L62.9232 58.6251L62.9619 59.4322L60.7948 59.3709L60.7561 58.5639ZM60.8189 59.8744L62.9861 59.9356L63.0263 60.7747L60.8591 60.7134L60.8189 59.8744ZM64.2805 59.1183L67.2713 59.2029L67.3177 60.1698L64.3269 60.0852L64.2805 59.1183ZM61.0159 55.9857L62.2474 56.0205L62.2887 56.8835L61.0572 56.8487L61.0159 55.9857ZM63.462 55.7037L66.3489 55.7853L66.3941 56.7282L63.5072 56.6466L63.462 55.7037ZM63.7631 60.6518L67.5136 60.7579L67.5611 61.7487L63.8106 61.6427L63.7631 60.6518ZM65.0324 58.4773L66.136 58.5085L66.3482 62.9354L65.2446 62.9042L65.0324 58.4773ZM61.516 57.7554L62.2677 57.7767L62.3849 60.2219L61.6332 60.2006L61.516 57.7554ZM66.053 55.7769L67.0766 55.8059C67.0766 55.8059 67.0761 55.8511 67.0751 55.9415C67.0792 56.0267 67.08 56.0986 67.0774 56.157C67.0867 56.5722 67.0873 56.9181 67.0793 57.1945C67.0765 57.471 67.0605 57.6914 67.0311 57.8555C67.0014 58.0142 66.9591 58.1301 66.904 58.203C66.839 58.2916 66.7649 58.356 66.6817 58.3962C66.5984 58.4364 66.504 58.4657 66.3984 58.4839C66.3085 58.4974 66.1917 58.5047 66.048 58.506C65.9097 58.5074 65.7604 58.5032 65.6002 58.4933C65.588 58.3493 65.5537 58.1888 65.4973 58.0116C65.4462 57.8346 65.3804 57.6838 65.2999 57.5591C65.407 57.5728 65.5007 57.5834 65.5809 57.591C65.6665 57.5988 65.7359 57.6034 65.7892 57.6049C65.8319 57.6061 65.8689 57.6018 65.9004 57.5921C65.9372 57.5825 65.9681 57.5594 65.9929 57.5229C66.0178 57.4863 66.0356 57.4124 66.0462 57.3009C66.0621 57.1897 66.0701 57.0223 66.07 56.7989C66.0753 56.5756 66.0718 56.2802 66.0595 55.9128L66.053 55.7769ZM63.9792 58.4954L64.9156 58.7054C64.869 59.0658 64.7927 59.4174 64.6866 59.7602C64.586 60.1032 64.4666 60.3898 64.3286 60.6199C64.2623 60.5702 64.1772 60.5172 64.0734 60.4611C63.9693 60.3996 63.8628 60.3434 63.7538 60.2925C63.6447 60.2362 63.552 60.191 63.4758 60.1569C63.6098 59.9532 63.7176 59.7036 63.7993 59.408C63.886 59.1072 63.946 58.803 63.9792 58.4954ZM60.6912 55.2104L61.7255 55.4631C61.6472 55.828 61.5473 56.1869 61.4258 56.5399C61.3043 56.8929 61.1656 57.2215 61.0098 57.5257C60.854 57.8298 60.6857 58.0937 60.5047 58.3174C60.4433 58.2571 60.3599 58.1829 60.2545 58.0948C60.1542 58.0016 60.0487 57.9108 59.938 57.8225C59.8326 57.7344 59.7388 57.6653 59.6565 57.6151C59.9093 57.3349 60.1239 56.9819 60.3005 56.556C60.4822 56.1249 60.6124 55.6764 60.6912 55.2104ZM60.279 57.2736L61.1986 57.2996L61.3001 59.4171C61.3126 59.6782 61.3155 59.9602 61.3087 60.2633C61.307 60.5611 61.2896 60.8639 61.2564 61.1715C61.2233 61.4791 61.1655 61.7728 61.083 62.0524C61.0062 62.3375 60.8986 62.5925 60.7603 62.8173C60.7045 62.7625 60.6242 62.6991 60.5196 62.627C60.4206 62.5603 60.3162 62.4936 60.2065 62.4266C60.1024 62.3652 60.0123 62.3174 59.9361 62.2833C60.1041 62.0114 60.22 61.7088 60.2839 61.3754C60.3531 61.0422 60.3901 60.7028 60.3948 60.3571C60.3993 60.0061 60.3944 59.6815 60.3801 59.3832L60.279 57.2736ZM62.5501 57.3378L63.4937 57.3644L63.707 61.8153C63.7173 62.0284 63.7018 62.2062 63.6607 62.3487C63.625 62.4913 63.5425 62.6034 63.4133 62.6848C63.2839 62.761 63.1343 62.8073 62.9648 62.8238C62.7952 62.8403 62.5958 62.8453 62.3665 62.8388C62.3439 62.6998 62.296 62.5336 62.2228 62.34C62.1497 62.1464 62.0754 61.9847 61.9999 61.8549C62.1335 61.864 62.2617 61.8729 62.3845 61.8817C62.5125 61.8853 62.6005 61.8878 62.6484 61.8892C62.6911 61.8904 62.72 61.8832 62.7353 61.8677C62.7556 61.847 62.7646 61.8126 62.7623 61.7647L62.5501 57.3378ZM64.341 56.0478L65.3726 56.0769C65.3651 56.4757 65.3266 56.839 65.2571 57.1669C65.193 57.4949 65.0606 57.7865 64.8598 58.0415C64.6642 58.2913 64.3654 58.501 63.9636 58.6705C63.9044 58.5465 63.8123 58.4029 63.6874 58.2397C63.5622 58.0713 63.4416 57.9429 63.3255 57.8545C63.634 57.7355 63.8586 57.5902 63.9994 57.4186C64.14 57.2417 64.2315 57.0395 64.2738 56.8119C64.3159 56.579 64.3383 56.3243 64.341 56.0478ZM61.9755 56.0128L62.1914 56.0189L62.3334 55.983L63.0083 56.4011C62.9299 56.6543 62.8259 56.928 62.6963 57.2222C62.5717 57.5113 62.4504 57.7579 62.3324 57.962C62.2385 57.8902 62.1203 57.8124 61.9779 57.7286C61.8405 57.6396 61.7199 57.567 61.616 57.5109C61.6686 57.3847 61.7176 57.2424 61.7633 57.0841C61.8143 56.926 61.8573 56.7676 61.8923 56.609C61.9323 56.4452 61.9629 56.3051 61.9839 56.1886L61.9755 56.0128ZM71.9275 58.2093L75.3901 58.3072L75.4426 59.4019L71.9799 59.3041L71.9275 58.2093ZM71.2395 56.0193L72.625 56.4335C72.6235 56.5133 72.5489 56.567 72.4011 56.5948L72.4896 58.4407C72.5049 58.7603 72.5063 59.1221 72.4937 59.5261C72.4862 59.9248 72.4501 60.3388 72.3855 60.7679C72.326 61.1918 72.2234 61.6065 72.0778 62.012C71.9372 62.4124 71.7417 62.7766 71.4913 63.1047C71.4339 63.0179 71.3494 62.9225 71.238 62.8182C71.1265 62.714 71.0099 62.6149 70.8883 62.5211C70.7669 62.4325 70.6572 62.3656 70.5592 62.3202C70.7694 62.0389 70.933 61.7323 71.0502 61.4005C71.1674 61.0686 71.2496 60.7278 71.2967 60.378C71.3438 60.0282 71.3672 59.6831 71.3669 59.3426C71.3718 59.0022 71.3673 58.6856 71.3533 58.3926L71.2395 56.0193ZM74.0981 55.6772L75.1173 56.6157C74.8039 56.7398 74.4659 56.8526 74.1034 56.9541C73.7406 57.0503 73.3719 57.1329 72.9972 57.2021C72.6279 57.2715 72.2685 57.3279 71.9192 57.3712C71.8859 57.2319 71.8275 57.068 71.7439 56.8794C71.6604 56.6909 71.5783 56.5343 71.4978 56.4096C71.82 56.3549 72.139 56.2921 72.4551 56.2212C72.7709 56.145 73.0703 56.0604 73.3533 55.9673C73.6364 55.8743 73.8846 55.7775 74.0981 55.6772ZM73.303 58.5834L74.4545 58.6159L74.6736 63.1867L73.5221 63.1541L73.303 58.5834ZM67.8461 57.0326L70.8769 57.1183L70.9294 58.213L67.8986 58.1274L67.8461 57.0326ZM68.7844 55.4472L69.8959 55.4786L70.2598 63.0699L69.1482 63.0385L68.7844 55.4472ZM68.8501 57.8191L69.525 58.0696C69.4819 58.3929 69.4232 58.7237 69.3489 59.0621C69.28 59.4006 69.1974 59.7335 69.1013 60.0606C69.0052 60.3877 68.8974 60.6932 68.7779 60.9771C68.6581 61.2557 68.5259 61.4967 68.3813 61.7001C68.3201 61.5334 68.2312 61.3447 68.1146 61.1339C67.998 60.9232 67.8908 60.7419 67.793 60.5902C67.9235 60.4236 68.0446 60.2302 68.1565 60.0099C68.2684 59.7897 68.369 59.5558 68.4583 59.3083C68.5476 59.0607 68.6261 58.8103 68.6938 58.5568C68.7615 58.3034 68.8136 58.0575 68.8501 57.8191ZM69.9588 58.4569C70.0147 58.5117 70.0992 58.6098 70.2125 58.7514C70.3255 58.8876 70.4445 59.0372 70.5694 59.2003C70.6995 59.3583 70.8156 59.5052 70.918 59.6411C71.0257 59.7772 71.0996 59.875 71.1397 59.9347L70.5516 60.8278C70.4919 60.6931 70.4155 60.542 70.3222 60.3744C70.229 60.2068 70.1303 60.0365 70.0262 59.8633C69.9218 59.6848 69.8206 59.517 69.7226 59.3599C69.6299 59.203 69.5462 59.0677 69.4715 58.9539L69.9588 58.4569ZM79.5644 58.4252C79.7723 58.431 79.9614 58.4869 80.1315 58.5928C80.3069 58.6989 80.4494 58.8385 80.5588 59.0119C80.668 59.1799 80.7276 59.3678 80.7376 59.5755C80.7473 59.778 80.7056 59.963 80.6125 60.1306C80.5193 60.2982 80.3899 60.4302 80.2242 60.5266C80.0637 60.6231 79.8796 60.6685 79.6717 60.6626C79.4691 60.6569 79.28 60.601 79.1046 60.495C78.9291 60.3889 78.7867 60.2492 78.6772 60.0759C78.5678 59.9026 78.5082 59.7147 78.4985 59.5122C78.4885 59.3045 78.5302 59.1195 78.6236 58.9572C78.7167 58.7896 78.8462 58.6576 79.0119 58.5612C79.1777 58.4648 79.3618 58.4194 79.5644 58.4252ZM83.9532 60.1851L91.3343 60.3938L91.3787 61.3207L83.9976 61.1121L83.9532 60.1851ZM83.8862 56.1214L90.9474 56.321L90.9953 57.3199L83.9341 57.1203L83.8862 56.1214ZM86.5249 59.5237L87.6826 59.8516C87.5256 60.1292 87.3582 60.4144 87.1806 60.7073C87.003 61.0002 86.8275 61.2825 86.6542 61.5542C86.4809 61.826 86.3194 62.0661 86.1696 62.2747L85.026 61.9072C85.1811 61.6988 85.3479 61.4588 85.5266 61.1872C85.7052 60.9156 85.8808 60.6359 86.0533 60.3482C86.231 60.0553 86.3882 59.7805 86.5249 59.5237ZM88.8481 60.6746L89.9887 60.9782C89.7989 61.4622 89.5544 61.8596 89.2552 62.1704C88.956 62.4811 88.5924 62.7262 88.1644 62.9056C87.7365 63.0851 87.2371 63.2199 86.6665 63.3102C86.0958 63.4004 85.444 63.4645 84.7111 63.5023C84.6657 63.3308 84.5985 63.1506 84.5095 62.9619C84.4209 62.7785 84.3283 62.6243 84.2318 62.4992C85.0993 62.4918 85.8422 62.441 86.4606 62.3468C87.079 62.2525 87.5842 62.0753 87.9764 61.815C88.3685 61.5548 88.6591 61.1747 88.8481 60.6746ZM85.6487 62.0684L86.201 61.2621C86.7989 61.4067 87.4028 61.5674 88.0129 61.7443C88.623 61.9211 89.2011 62.097 89.7472 62.2721C90.2933 62.4471 90.7643 62.6094 91.1601 62.7589L90.5096 63.6821C90.129 63.5171 89.6786 63.3395 89.1584 63.1492C88.6384 62.9643 88.0785 62.7782 87.4785 62.591C86.8786 62.4038 86.2686 62.2296 85.6487 62.0684ZM85.9682 56.5713L87.0637 56.6022L87.1932 59.3031L86.0976 59.2722L85.9682 56.5713ZM87.7514 56.6217L88.847 56.6526L88.9765 59.3535L87.8809 59.3226L87.7514 56.6217ZM85.4321 58.3835L85.4589 58.9429L89.7132 59.0632L89.6864 58.5038L85.4321 58.3835ZM84.3013 57.4498L90.8027 57.6336L90.9157 59.9909L84.4142 59.8071L84.3013 57.4498ZM95.4723 59.9202L96.3777 59.4829C96.5196 59.6678 96.6624 59.8687 96.8059 60.0856C96.9491 60.2971 97.079 60.5083 97.1956 60.719C97.3122 60.9298 97.4012 61.1212 97.4627 61.2932L96.48 61.7841C96.4294 61.6177 96.3484 61.4266 96.2369 61.2106C96.1307 60.9948 96.0111 60.776 95.878 60.5541C95.7446 60.3269 95.6094 60.1156 95.4723 59.9202ZM95.7484 57.518L98.5233 57.5965L98.5758 58.6912L95.8009 58.6128L95.7484 57.518ZM98.0195 57.5822L99.1391 57.6139C99.1391 57.6139 99.1407 57.6485 99.1441 57.7178C99.1471 57.7817 99.1507 57.8563 99.1548 57.9415C99.1586 58.0214 99.159 58.0853 99.156 58.1331C99.1709 59.0006 99.1798 59.7404 99.1825 60.3522C99.1849 60.9588 99.1744 61.4612 99.1509 61.8596C99.1327 62.2581 99.0999 62.5737 99.0525 62.8064C99.0102 63.034 98.9491 63.2025 98.8691 63.312C98.7547 63.479 98.6325 63.5952 98.5025 63.6607C98.3779 63.7263 98.2257 63.7726 98.046 63.7994C97.898 63.8218 97.7094 63.8298 97.4801 63.8233C97.2511 63.8222 97.0192 63.8156 96.7844 63.8036C96.7712 63.6384 96.7219 63.4428 96.6365 63.2169C96.5511 62.9911 96.4512 62.7941 96.3366 62.6259C96.5829 62.6542 96.8101 62.6739 97.0183 62.6851C97.2262 62.691 97.3835 62.6954 97.4901 62.6984C97.5701 62.7007 97.6335 62.6918 97.6805 62.6719C97.7328 62.6521 97.7816 62.6162 97.8271 62.5643C97.888 62.5022 97.9347 62.3652 97.9671 62.1533C98.0049 61.9416 98.0307 61.647 98.0445 61.2697C98.0581 60.887 98.0619 60.411 98.0559 59.8416C98.055 59.267 98.0465 58.5885 98.0303 57.806L98.0195 57.5822ZM95.5893 56.1968L96.8094 56.4947C96.722 56.8912 96.6076 57.2816 96.4663 57.666C96.3303 58.0505 96.1771 58.408 96.0066 58.7383C95.8361 59.0686 95.6554 59.3535 95.4645 59.5928C95.3866 59.5214 95.2815 59.4387 95.1492 59.3445C95.0222 59.2505 94.8901 59.1589 94.7527 59.0699C94.6153 58.9809 94.4974 58.9084 94.3989 58.8525C94.5915 58.6504 94.7637 58.4106 94.9154 58.1329C95.0722 57.85 95.2066 57.5426 95.3184 57.2106C95.4356 56.8788 95.5259 56.5409 95.5893 56.1968ZM92.8072 56.1342L93.8476 56.5147C93.7459 56.7246 93.6389 56.9371 93.5268 57.152C93.4199 57.3671 93.3154 57.5743 93.2132 57.7736C93.1106 57.9675 93.0097 58.1375 92.9102 58.2837L92.1196 57.9501C92.2076 57.7877 92.2945 57.6013 92.3802 57.3909C92.466 57.1805 92.5463 56.9674 92.6211 56.7513C92.701 56.5302 92.763 56.3244 92.8072 56.1342ZM93.8051 57.128L94.7999 57.5551C94.6121 57.8583 94.4088 58.1718 94.1901 58.4954C93.9767 58.8192 93.76 59.1297 93.54 59.4267C93.3197 59.7184 93.1109 59.9732 92.9137 60.191L92.2012 59.8198C92.3471 59.643 92.4947 59.445 92.6439 59.2258C92.7928 59.0012 92.9387 58.7686 93.0816 58.5279C93.2245 58.2873 93.3567 58.0463 93.4782 57.805C93.6051 57.5639 93.714 57.3382 93.8051 57.128ZM91.6882 58.1135L92.1853 57.3216C92.3295 57.4427 92.4771 57.5799 92.6282 57.7331C92.7844 57.8811 92.9272 58.0288 93.0568 58.1761C93.186 58.3181 93.2856 58.4512 93.3554 58.5756L92.8153 59.47C92.7505 59.3405 92.6558 59.1969 92.5311 59.0391C92.4062 58.8759 92.268 58.7151 92.1167 58.5565C91.9704 58.3928 91.8276 58.2451 91.6882 58.1135ZM93.7394 59.0892L94.5302 58.7604C94.6455 58.9445 94.7561 59.1419 94.8621 59.3523C94.9677 59.5575 95.0599 59.7596 95.1387 59.9586C95.2228 60.1579 95.2846 60.3378 95.3243 60.4986L94.4718 60.8735C94.4377 60.7182 94.3812 60.5384 94.3022 60.334C94.2285 60.1298 94.1412 59.9198 94.0404 59.7042C93.9446 59.4833 93.8443 59.2783 93.7394 59.0892ZM91.7586 59.5838C92.1366 59.5839 92.589 59.5807 93.1158 59.5743C93.6423 59.5626 94.1768 59.5511 94.7193 59.5398L94.755 60.4505C94.2559 60.479 93.7567 60.5048 93.2573 60.5279C92.758 60.551 92.3064 60.5702 91.9025 60.5854L91.7586 59.5838ZM93.9418 61.1458L94.776 60.89C94.8888 61.1326 94.9973 61.3964 95.1015 61.6813C95.2107 61.961 95.2942 62.2028 95.3518 62.4066L94.4719 62.7089C94.4246 62.5 94.3488 62.2505 94.2444 61.9603C94.145 61.6649 94.0442 61.3934 93.9418 61.1458ZM92.1078 60.8705L93.0675 61.0652C93.0538 61.4478 93.0161 61.8272 92.9543 62.2031C92.8924 62.5791 92.8143 62.8934 92.72 63.1461C92.654 63.1017 92.5664 63.0513 92.4572 62.9951C92.348 62.9388 92.2363 62.8851 92.122 62.834C92.0075 62.7775 91.9096 62.7349 91.8284 62.706C91.9238 62.4746 91.9929 62.1946 92.0357 61.8659C92.0783 61.532 92.1023 61.2002 92.1078 60.8705ZM93.0078 60.1538L94.0314 60.1827L94.2022 63.7466L93.1786 63.7177L93.0078 60.1538Z" fill="#1F2937"/>
<rect width="53" height="5" rx="2" transform="matrix(0.998873 0.0474725 0.0286551 0.999589 37.356 119.519)" fill="#DDDFE3"/>
<rect width="53" height="5" rx="2" transform="matrix(0.998873 0.0474725 0.0286551 0.999589 36.9094 99.5234)" fill="#DDDFE3"/>
<rect width="53" height="5" rx="2" transform="matrix(0.998873 0.0474725 0.0286551 0.999589 36.4631 79.5283)" fill="#DDDFE3"/>
<rect width="8" height="8" rx="2" transform="matrix(0.997564 0.0697565 0.00633617 0.99998 20 117.932)" fill="#3479FD"/>
<rect width="8" height="8" rx="2" transform="matrix(0.997564 0.0697565 0.00633617 0.99998 20 97.9316)" fill="#3479FD"/>
<rect width="8" height="8" rx="2" transform="matrix(0.997564 0.0697565 0.00633617 0.99998 20 77.9316)" fill="#3479FD"/>
<g clip-path="url(#clip0_40_394)">
<path d="M17.3311 38.4716L17.1829 36.2037L24.0006 36.278L24.1488 38.5459L17.3311 38.4716ZM24.7158 34.1895L22.174 31.7822L23.661 30.212L26.2029 32.6193L24.7158 34.1895ZM28.2494 31.7918L27.8049 24.9881L30.0774 25.0129L30.522 31.8165L28.2494 31.7918ZM34.3743 34.2948L32.6798 32.6899L34.9104 30.3346L36.6049 31.9395L34.3743 34.2948ZM35.5118 38.6697L35.3636 36.4018L42.1814 36.4761L42.3296 38.744L35.5118 38.6697ZM27.4991 39.8572C26.793 39.1885 26.4091 38.3817 26.3473 37.4367C26.2856 36.4918 26.5645 35.6922 27.1841 35.0379C27.8038 34.3837 28.587 34.0617 29.5339 34.072C30.4808 34.0824 31.3073 34.4219 32.0134 35.0906C32.7195 35.7592 33.1034 36.5661 33.1651 37.511C33.2269 38.456 32.9479 39.2556 32.3283 39.9098C31.7087 40.5641 30.9254 40.886 29.9785 40.8757C29.0316 40.8654 28.2051 40.5259 27.4991 39.8572ZM35.8514 44.7357L33.3096 42.3284L34.7967 40.7582L37.3385 43.1655L35.8514 44.7357ZM24.6021 44.6131L22.9075 43.0083L25.1381 40.653L26.8327 42.2578L24.6021 44.6131ZM29.435 49.9349L28.9904 43.1312L31.263 43.156L31.7076 49.9597L29.435 49.9349Z" fill="#3170FD"/>
</g>
<defs>
<filter id="filter0_d_40_394" x="0" y="0" width="125.5" height="153.273" filterUnits="userSpaceOnUse" color-interpolation-filters="sRGB">
<feFlood flood-opacity="0" result="BackgroundImageFix"/>
<feColorMatrix in="SourceAlpha" type="matrix" values="0 0 0 0 0 0 0 0 0 0 0 0 0 0 0 0 0 0 127 0" result="hardAlpha"/>
<feOffset dx="-3" dy="1"/>
<feGaussianBlur stdDeviation="2"/>
<feComposite in2="hardAlpha" operator="out"/>
<feColorMatrix type="matrix" values="0 0 0 0 0.72549 0 0 0 0 0.839216 0 0 0 0 0.992157 0 0 0 1 0"/>
<feBlend mode="normal" in2="BackgroundImageFix" result="effect1_dropShadow_40_394"/>
<feBlend mode="normal" in="SourceGraphic" in2="effect1_dropShadow_40_394" result="shape"/>
</filter>
<clipPath id="clip0_40_394">
<rect width="31" height="31" fill="white" transform="matrix(0.999941 0.0108972 0.0652057 0.997872 16.0508 18.877)"/>
</clipPath>
</defs>
</svg>
